<svg xmlns="http://www.w3.org/2000/svg" viewBox="4 -2 98.742729 42.421364"><g transform="translate(-213.98 -273)"><path d="M278.9 289.2h-23c-3.5 0-6.3-2.9-6.3-6.3 0-3.5 2.9-6.3 6.3-6.3h23c3.5 0 6.3 2.9 6.3 6.3s-2.8 6.3-6.3 6.3z" fill="#C8E0F1" stroke="#B6BABD" stroke-width="3" stroke-linecap="round" stroke-miterlimit="10"/><path d="M222.7 282.8H312m-89.3 0v-6.3m89.3 6.3v-6.3m-92.5 0h6.4m83 0h6.3m-32.3 11.2c8 5 13.4 14 13.4 24.2m-57 0c0-10 5.1-18.8 12.9-23.9" fill="none" stroke="#B6BABD" stroke-width="3" stroke-linecap="round" stroke-miterlimit="10"/><path d="M277.6 290.3c0 5.7-4.6 10.3-10.3 10.3-5.7 0-10.3-4.6-10.3-10.3" fill="#FAD9A4" stroke="#B6BABD" stroke-width="3" stroke-linecap="round" stroke-miterlimit="10"/><circle cx="267.5" cy="294.3" r="2.6" fill="#B6BABD"/><path d="M273.7 299.3c5.2 2.2 8.1 6.6 8.1 12.6m-28.9 0c0-5.8 3.4-10.8 8.3-13.1" fill="none" stroke="#B6BABD" stroke-width="3" stroke-linecap="round" stroke-miterlimit="10"/><path d="M254.9 276.1c0-2 1.6-3.6 3.6-3.6h17.7c2 0 3.6 1.6 3.6 3.6" fill="none" stroke="#B6BABD" stroke-width="3" stroke-miterlimit="10"/><path d="M244.6 281.9c0-1.7-1.4-3.2-3.2-3.2h-7.1c-1.7 0-3.2 1.4-3.2 3.2m6.7-3.2v-4.4m-4.5-1.7h9m61.8 9.3c0-1.7-1.4-3.2-3.2-3.2h-7.1c-1.7 0-3.2 1.4-3.2 3.2m6.8-3.2v-4.4m-4.5-1.7h8.9" fill="none" stroke="#B6BABD" stroke-width="3" stroke-linecap="round" stroke-miterlimit="10"/></g></svg>