<svg xmlns="http://www.w3.org/2000/svg" viewBox="4 -2 1796 770" xmlns:xlink="http://www.w3.org/1999/xlink" style="background-color:#f7fafb">
<defs>
	<symbol id="ponte">
		<path d="M1201.1 379.3h20v180h-20zm-14.5 181h49v115h-49zm-576-35h590v14h-590z" class="st3" fill="#f2f2f2" stroke="#666e72" stroke-width="3" stroke-linecap="round" stroke-miterlimit="10"/><path d="M610.6 387.3c68.3 75.4 175 124 295 124s226.7-48.6 295-124M643.4 419v105.3m32.7-79v80m32.8-61V525m32.8-44v42.3m32.8-30.3v31.3m32.7-24.1v24.1m32.8-17.9v17.9m32.8-13V525m299.5-107v105.3m-32.8-82v83m-32.8-62v61m-32.8-45.3v46.3m-32.7-32.3v31.3m-32.8-24.1v24.1m-32.8-17.9v17.9m-32.8-13V524m-37.2-12.7v14" class="st4" fill="none" stroke="#666e72" stroke-width="3" stroke-linecap="round" stroke-miterlimit="10"/><circle r="4.7" cy="392" cx="1211.1" class="st5" fill="#666e72" stroke="#f2f2f2" stroke-linecap="round" stroke-miterlimit="10"/><path d="M1198 577.3h26.2m-26.2 10h26.2m-26.2 10h26.2m-26.2 10h26.2m-26.2 10h26.2m-26.2 10h26.2m-26.2 10h26.2" class="st4" fill="none" stroke="#666e72" stroke-width="3" stroke-linecap="round" stroke-miterlimit="10"/><path d="M1187.113 655.237h48.386v19.426h-48.388z" class="st8" fill="#f58369" stroke="#666e72" stroke-width="3.074" stroke-linecap="round" stroke-miterlimit="10"/><path d="M1188.1 654.8h45.9" class="st7" fill="none" stroke="#666e72" stroke-width="3" stroke-miterlimit="10"/><circle class="st5" cx="1211.1" cy="392" r="4.7" fill="#666e72" stroke="#f2f2f2" stroke-linecap="round" stroke-miterlimit="10"/><path class="st7" d="M1188.1 654.8h45.9" fill="none" stroke="#666e72" stroke-width="3" stroke-miterlimit="10"/>
	</symbol>

</defs>

<style>.st0{fill:#dfe5e5}.st1{opacity:.45;fill:#e2e8e7}.st2{opacity:.15}.st3{fill:#f2f2f2;stroke-linecap:round;stroke-miterlimit:10}.st3,.st4{stroke:#666e72;stroke-width:3}.st4{fill:none}.st4,.st5{stroke-linecap:round;stroke-miterlimit:10}.st5{fill:#666e72;stroke:#f2f2f2}.st6{fill:#60c29d}.st7{fill:none}.st7,.st8{stroke:#666e72;stroke-width:3;stroke-miterlimit:10}.st8{fill:#f58369;stroke-linecap:round}.st9{fill:#4bb97a}.st10{fill:#fff}.st10,.st11{stroke:#666e72;stroke-width:3;stroke-linecap:round;stroke-miterlimit:10}.st11{fill:#91c2e4}.st12{fill:#f2f2f2}.st13{fill:#91c2e4}.st14{fill:#fff}.st15{fill:none;stroke-linejoin:bevel}.st15,.st16{stroke:#666e72;stroke-width:3;stroke-miterlimit:10}.st16{fill:#fbb041;stroke-linecap:round}.st17{fill:#666e72}.st18{fill:#f58369}.st19{fill:none;stroke:#666e72;stroke-width:3;stroke-linejoin:round;stroke-miterlimit:10}.st20{fill:#fbb041}.st21{opacity:.55;fill:#f7fafb}.st22{fill:#4dba7a;stroke:#666e72;stroke-width:3;stroke-miterlimit:10}.st23{fill:#6cc18e}.st23,.st24{stroke:#666e72;stroke-width:3;stroke-miterlimit:10}.st24{fill:#aac838}</style>

<path class="st0" d="M715.8 265.9c-154.688 0-282.6 114.256-304.025 263H351.2v-25.1h-4.6v-27.2h-3.7s-.8-27.2-22.4-27.2c-24.1 0-23.9 26.2-23.9 26.2h-3.1v28.3h-6.2v25h-37.6v-86.7h-46.8v86.7h-4.4v11h4.4v128.5h-15.4V492.1H106v118.2H65.9c-25.914-42.12-19.858 46.197-19.8 69 379.957 1.473 526.145 38.42 939.9 40.1 23.6-43.5 37-93.4 37-146.3 0-11.22-.618-22.293-1.79-33.2h61.49v9.4h-8.8v128.8l.1 1.1h721.2V610h-35.9v-16h-70.2v11.1H1646V478h-87.9v189.6h-16.6V424.4h-50.3v228.4l-11.1-11.6-6.6 6.6V547.2h-22.7v-56.4h-6.6v-30.4h-3.3s.2-28.2-25.7-28.2c-23.2 0-24 29.3-24 29.3h-4v29.3h-4.9v38.1h-33.49l-5.21-2.3H1322l-5.045 2.3h-94.474c-3.56-1.563-6.566-2.8-7.18-2.8h-17.7l-5.75 2.8h-49.55v-4.5h-8.8v-12.7l-20.4-23.8-19.9 22.7V525h-10.5v3.9h-62.875C998.4 380.156 870.49 265.9 715.8 265.9zm-466.1 274h37.6v16.4h-21.1v93.6l-6.2-6.2-10.3 10.8zm101.5 0h59.19c-1.173 10.907-1.79 21.98-1.79 33.2 0 7.874.3 15.677.88 23.4H389v14.9h-29.1v-36.7h3.6v-10.2h-12.3zm791.1 0h36v86.2h-24.9v-79h-11.1zm94.6 0h66.9v48.6h-23.2c-6.1 0 0-5.5 0-5.5l-11.1-7.2-9.9 7.2v6.7h-22.7zm125.5 0h19.9V556H1369v10.9h3.9V678h-10.5z"/>

<g opacity=".15">
	<use xlink:href="#ponte" x="2440"/>
	<use xlink:href="#ponte" x="1830"/>
	<use xlink:href="#ponte" x="1220"/>
	<use xlink:href="#ponte" x="610"/>
	<use xlink:href="#ponte"/>
	<use xlink:href="#ponte" x="-610"/>
	<use xlink:href="#ponte" x="-1220"/>
	<use xlink:href="#ponte" x="-1830"/>
	<use xlink:href="#ponte" x="-2440"/>
</g>

<path class="st9" d="m -2000,677.3 5800,0 0,2000 -5800,0 z"/>

<path class="st7" d="M-2000 676.5h5800"/><path class="st10" d="M143 269.3v-21m0 55.3c-3.5 0-6.3-2.8-6.3-6.3V274c0-3.5 2.8-6.3 6.3-6.3s6.3 2.8 6.3 6.3v23.4c0 3.4-2.9 6.2-6.3 6.2z"/><path class="st4" d="M142.8 289.8v-9.7"/><path class="st10" d="M143 324.9c-7.3 0-13.2-5.9-13.2-13.2v-13.3c0-7.3 5.9-13.2 13.2-13.2 7.3 0 13.2 5.9 13.2 13.2v13.3c0 7.2-6 13.2-13.2 13.2z"/><path class="st4" d="M148.3 307v-9.8m-11.1 9.8v-9.8m5.6 8.1v-9.7"/><circle class="st10" cx="143" cy="323.4" r="22.5"/><path class="st4" d="M142.8 318.1v-9.8m-8.3 11.4V310m16.6 9.7V310"/><circle class="st11" cx="143" cy="340.2" r="27.1"/><path class="st4" d="M142.8 331.4v-9.8m-8.3 10.9v-9.8m-8.3 13.1V326m24.9 6.5v-9.8m8.3 13.1V326"/><circle class="st10" cx="143" cy="359" r="31.3"/><path class="st4" d="M142.8 345.2v-9.8"/><path class="st10" d="M108.6 376l-16.5 9.3v59.8h16.5zm68.8 0l16.5 9.3v59.8h-16.5z"/><path class="st4" d="M132.8 348v-9.8m-9.4 13.1v-9.8m29.3 6.5v-9.8m9.5 13.1v-9.8"/><path class="st10" d="M143 342.6c-20.2 0-36.6 16.4-36.6 36.6v297.7h73.1V379.2c0-20.2-16.3-36.6-36.5-36.6z"/><path class="st4" d="M137.8 359v-9.7m-8.9 13.1v-9.8m-8.3 17v-9.8m27.2-.8v-9.7m8.8 13.1v-9.8m8.3 16.4v-9.8"/><path class="st10" d="M168.3 420.8v-39.5c0-14.1-11.4-25.5-25.5-25.5s-25.5 11.4-25.5 25.5v39.5h-38l5.5 7.8v248.3h115.8V428.5l5.5-7.8h-37.8z"/><path class="st4" d="M99.8 390.3v30.5m86.4-30.5v30.5m-12.6 7.7h26.9"/><path class="st12" d="M119.3 383.3v39.5H86.9v251.1h58V357.7c-14.1 0-25.6 11.5-25.6 25.6z"/><path class="st4" d="M113.4 446.3h58.4m-77.2 0h9.8m76.5 0h9.7m-77.2 9h58.4m-77.2 0h9.8m76.5 0h9.7m-77.2 9h58.4m-77.2 0h9.8m76.5 0h9.7m-77.2 9h58.4m-77.2 0h9.8m76.5 0h9.7m-77.2 9h58.4m-77.2 0h9.8m76.5 0h9.7m-77.2 9h58.4m-77.2 0h9.8m76.5 0h9.7m-77.2 9h58.4m-77.2 0h9.8m76.5 0h9.7m-77.2 9h58.4m-77.2 0h9.8m76.5 0h9.7m-77.2 8.9h58.4m-77.2 0h9.8m76.5 0h9.7m-77.2 9h58.4m-77.2 0h9.8m76.5 0h9.7M113.4 536.2h58.4m-77.2 0h9.8m76.5 0h9.7M113.4 545.2h58.4m-77.2 0h9.8m76.5 0h9.7M113.4 554.2h58.4m-77.2 0h9.8m76.5 0h9.7M113.4 563.2h58.4m-77.2 0h9.8m76.5 0h9.7M113.4 572.2h58.4m-77.2 0h9.8m76.5 0h9.7M113.4 581.2h58.4m-77.2 0h9.8m76.5 0h9.7M113.4 590.1h58.4m-77.2 0h9.8m76.5 0h9.7M113.4 599.1h58.4m-77.2 0h9.8m76.5 0h9.7M113.4 608.1h58.4m-77.2 0h9.8m76.5 0h9.7M113.4 617.1h58.4m-77.2 0h9.8m76.5 0h9.7M113.4 626.1h58.4m-77.2 0h9.8m76.5 0h9.7M84.8 428.5h26.9"/><path class="st12" d="M86.9 422.8h-3.6l3.6 3.8z"/><path class="st4" d="M130.6 377h23.8m-23.8 5.6h23.8m-23.8 5.5h23.8m-23.8 5.5h23.8m-23.8 5.6h23.8m-23.8 5.5h23.8m-23.8 5.6h23.8"/><path class="st13" d="M36.8 324.4H67v4.4H36.8z"/><path class="st14" d="M47.7 97.2h7.8v103.9h-7.8zm15.1 227.2H40.7l1.8-73.5h17.6zm13 351.6H28.6l10.7-310.9h24z"/><path class="st12" d="M52.6 676h-24l10.7-310.9h13.3z"/><path class="st14" d="M59.1 233.5h-15l.9-31.4h13.2z"/><path class="st10" d="M32.2 337.3l-1.7-6.9c-.1-.6.3-1.2.9-1.2h40.7c.6 0 1.1.6.9 1.2l-1.7 6.9"/><path class="st4" d="M74.9 674.1L64.2 367.2c0-.7.1-1.4.3-2.1l.6-2m-26.5-.1l.6 2c.2.7.3 1.4.3 2.1l-10.7 307"/><path class="st10" d="M67.7 363H36c-.5 0-1-.4-1.1-.9l-4.5-23.6c-.1-.6.3-1.2 1-1.2h40.7c.7 0 1.2.6 1.1 1.3l-4.5 23.5c0 .5-.5.9-1 .9zm-28.3-6h24.9m-26.1-4.4h27.3m-28.3-5.5h7.4m-8.3-4.2h8.3m21.9 4.2h-7.3m8.2-4.2h-8.2m-10.6 0h6.5m-6.5 4.2h6.5"/><path class="st4" d="M68.4 328.7l-1.3-3.5c-.1-.5-.5-.8-1-.8H37.6c-.5 0-.9.3-1 .8l-1.3 3.5"/><path class="st15" d="M61.7 324.4c.6 0 1-.5 1-1l-2-72.4c0-.5-.5-.9-1-.9H43.4c-.5 0-.9.4-1 .9l-2 72.4c0 .6.4 1 1 1"/><path class="st4" d="M57.2 201.1H46c-.5 0-1 .4-1 1l-.9 30.4c0 .5.4 1 1 1h13.1c.5 0 1-.4 1-1l-.9-30.4c-.1-.6-.5-1-1.1-1z"/><path class="st4" d="M55.5 201.1L55 98.7c0-.8-.7-1.5-1.5-1.5h-3.9c-.8 0-1.5.7-1.5 1.5l-.5 102.4m4-131.3v26.7"/><path class="st10" d="M52.6 364.2v315.3"/><path class="st16 predio-topo-piscante" d="M63.2 250H40c-.5 0-.9-.4-1-.8L36.9 235c-.1-.6.4-1.1 1-1.1h27.4c.6 0 1.1.5 1 1.1l-2.1 14.1c-.1.5-.5.9-1 .9z"/><path class="st10" d="M43.5 239.4h16.2m-14.9 4.9h13.6M40.1 659.9l3.4-183.2m14.9-111.8L62.7 590"/><path class="st12" d="M54.2 322.6h-10l1.8-70.7h7.4zm-1.6-91.4h-5.7l.8-28.3h4.9z"/><g><path class="st3" d="M1698.7 418.2l-18.8 6c-2.1.6-3.6 2.5-3.6 4.7v155.7"/><path class="st10" d="M1720.3 418.2l18.8 6c2.1.6 3.6 2.5 3.6 4.7v155.7"/><path class="st3" d="M1666.8 656l19.3-142.8 22-162.4c.2-1.7 2.7-1.7 2.9 0l22 162.4 19 142.8h-85.2z"/><path class="st14" d="M1750.4 653.9l-19.1-141.1-21.6-158.9c-.2-1.7-.2-3.2-.5-1.5l1.2 301.3"/><path class="st18" d="M1734.8 534.8h-50.5l1.6-11.8h47.4z"/><path class="st17" d="M1739.8 569.5h-60.5l1.5-11.8h57.5z"/><path class="st4" d="M1698.3 428.7h22.7m-24.7 11.8h26.6m-27.9 11.8h29.3m-30.7 11.8h32m-33.3 11.7h34.7m-36.1 11.8h37.4m-38.7 11.8h40.1m-42.6 11.8h45.1M1685 523h49.2m-50.2 11.8h51.2m-52.5 11.7h53.8m-55.5 11.8h57.3m-59 11.8h60.7m-62.1 11.8h63.4m-65.5 11.8h67.6m-68.6 11.8h69.6m-71.5 11.8h73.5M1671 629h77.2m-78.5 11.8h79.8"/><path class="st12" d="M1666.6 657.2h85.9v18.7h-85.9z"/><path class="st14" d="M1760.1 676.9h-49.8v-19h42.2z"/><path class="st3" d="M1666.2 677.6h-8.5l4.2-9.5 4.3-9.5 4.3 9.5 4.3 9.5zm17.3 0h-8.6l4.3-9.5 4.3-9.5 4.3 9.5 4.2 9.5zm17.2 0h-8.5l4.3-9.5 4.2-9.5 4.3 9.5 4.3 9.5z"/><path class="st4" d="M1718 677.6h-8.5l4.2-9.5 4.3-9.5 4.3 9.5 4.2 9.5zm17.3 0h-8.6l4.3-9.5 4.3-9.5 4.2 9.5 4.3 9.5zm17.2 0h-8.5l4.3-9.5 4.2-9.5 4.3 9.5 4.3 9.5z"/></g><g><path class="st10" d="M1540.3 677.2h-103.1V441.6c0-1.4 1.2-2.6 2.6-2.6h97.9c1.4 0 2.6 1.2 2.6 2.6v235.6zm-91.9-239.9v-77.7c0-1.4 1.2-2.6 2.6-2.6h75.5c1.4 0 2.6 1.2 2.6 2.6v77.7m-67.9-81.8v-53c0-1 .8-1.7 1.7-1.7h51.6c1 0 1.7.8 1.7 1.7v53m-46.6-55.8v-27.8c0-1 .8-1.7 1.7-1.7h34.8c1 0 1.7.8 1.7 1.7v27.8"/><circle class="st17" cx="1488.8" cy="223.8" r="3.9"/><path class="st17" d="M1486.5 231.5l1.4-26.1c0-.5.4-.9.9-.8.5 0 .8.4.8.8l1.4 26.1c.1 1.3-.9 2.4-2.2 2.4-1.3.1-2.4-.9-2.4-2.2.1 0 .1-.1.1-.2z"/><path class="st12" d="M1489 437.3h-37.1c-1 0-1.7-.8-1.7-1.7v-74.9c0-1 .8-1.7 1.7-1.7h37.1c1 0 1.7.8 1.7 1.7v74.9c0 1-.8 1.7-1.7 1.7zm.2 237.7h-47.9c-1 0-1.7-.8-1.7-1.7V442.8c0-1 .8-1.7 1.7-1.7h47.9c1 0 1.7.8 1.7 1.7v230.5c.1.9-.7 1.7-1.7 1.7z"/><path class="st4" d="M1459.1 369.4h59.3m-59.3 11.4h59.3m-59.3 11.5h59.3m-59.3 11.5h59.3m-69 46.2h90.9m-103.1 10.5h103.1m-103.1 10.4h103.1m-103.1 20.9h103.1m-103.1 20.9h103.1m-103.1 20.9h103.1m-103.1 10.5h103.1m-103.1 10.4h103.1m-103.1 20.9h103.1m-103.1 10.5h103.1m-103.1 10.4h103.1m-103.1 10.5h103.1m-103.1 31.3h103.1m-103.1 10.5h103.1M1437.2 659h103.1"/><path class="st17" d="M1436.8 460.9h25.2v9.6h-25.2zm0 83.6h25.2v9.6h-25.2z"/><path class="st18" d="M1462 461.8h76.9v7.8H1462z"/><path class="st12" d="M1490.7 355.1h-26c-.5 0-.9-.4-.9-.9v-50.5c0-.5.4-.9.9-.9h26c.5 0 .9.4.9.9v50.5c0 .5-.4.9-.9.9z"/><path class="st4" d="M1469 311.9h39.2m-39.2 8.7h39.2m-39.2 8.7h39.2M1469 338h39.2m-39.2 8.7h39.2"/><path class="st12" d="M1489.9 299.1h-17.7c-.5 0-.9-.4-.9-.9V273c0-.5.4-.9.9-.9h17.7c.5 0 .9.4.9.9v25.3c-.1.5-.5.8-.9.8z"/><path class="st4" d="M1477 285.8h23.5m-23.5-5.2h23.5M1477 291h23.5m-17-30.5h10.5m-10.5-4.3h10.5"/><path class="st19" d="M1502.6 269c0-2-.4-3.8-1-5.5h.1l-6.5-16.7-6.5-16.7-6.5 16.7-6.5 16.7h.1c-.6 1.7-1 3.6-1 5.5"/><circle class="st17" cx="1645.5" cy="223.8" r="3.9"/><path class="st17" d="M1643.2 231.5l1.4-26.1c0-.5.4-.9.9-.8.5 0 .8.4.8.8l1.4 26.1c.1 1.3-.9 2.4-2.2 2.4-1.3.1-2.4-.9-2.4-2.2.1 0 .1-.1.1-.2z"/><path class="st4" d="M1640.2 260.5h10.5m-10.5-4.3h10.5"/><path class="st19" d="M1659.4 269c0-2-.4-3.8-1-5.5h.1l-6.5-16.7-6.5-16.7-6.5 16.7-6.5 16.7h.1c-.6 1.7-1 3.6-1 5.5"/></g><g><path class="st10" d="M1697.1 677.2H1594V441.6c0-1.4 1.2-2.6 2.6-2.6h97.9c1.4 0 2.6 1.2 2.6 2.6v235.6zm-91.9-239.9v-77.7c0-1.4 1.2-2.6 2.6-2.6h75.5c1.4 0 2.6 1.2 2.6 2.6v77.7m-67.9-81.8v-53c0-1 .8-1.7 1.7-1.7h51.6c1 0 1.7.8 1.7 1.7v53"/><path class="st12" d="M1645.8 437.3h-37.1c-1 0-1.7-.8-1.7-1.7v-74.9c0-1 .8-1.7 1.7-1.7h37.1c1 0 1.7.8 1.7 1.7v74.9c0 1-.8 1.7-1.7 1.7zm.2 237.7h-47.9c-1 0-1.7-.8-1.7-1.7V442.8c0-1 .8-1.7 1.7-1.7h47.9c1 0 1.7.8 1.7 1.7v230.5c0 .9-.7 1.7-1.7 1.7z"/><path class="st4" d="M1615.9 369.4h59.2m-59.2 11.4h59.2m-59.2 11.5h59.2m-59.2 11.5h59.2m-68.9 46.2h90.8m-103 10.5h103m-103 10.4h103m-103 20.9h103m-103 20.9h103m-103 20.9h103m-103 10.5h103m-103 10.4h103m-103 20.9h103m-103 10.5h103m-103 10.4h103m-103 10.5h103m-103 31.3h103m-103 10.5h103M1594 659h103"/><path class="st17" d="M1594.4 460.9h101.9v9.6h-101.9z"/><path class="st13" d="M1618.5 576.7h77.3v7.9h-77.3z"/><path class="st12" d="M1647.5 355.1h-26c-.5 0-.9-.4-.9-.9v-50.5c0-.5.4-.9.9-.9h26c.5 0 .9.4.9.9v50.5c0 .5-.4.9-.9.9z"/><path class="st4" d="M1625.8 311.9h39.2m-39.2 8.7h39.2m-39.2 8.7h39.2m-39.2 8.7h39.2m-39.2 8.7h39.2"/><path class="st10" d="M1626.4 299.7v-27.8c0-1 .8-1.7 1.7-1.7h34.8c1 0 1.7.8 1.7 1.7v27.8"/><path class="st12" d="M1646.7 299.1H1629c-.5 0-.9-.4-.9-.9V273c0-.5.4-.9.9-.9h17.7c.5 0 .9.4.9.9v25.3c-.1.5-.5.8-.9.8z"/><path class="st4" d="M1633.8 285.8h23.5m-23.5-5.2h23.5m-23.5 10.4h23.5"/><path class="st17" d="M1594.3 575.9h25.2v9.6h-25.2z"/></g><g><path class="st4" d="M1539.5 477.8h55v25.3h-55zm27.5 25.3l-27.5 21.7m27-21.7l27.5 21.7m-44.4-46.2v9.3m8.7-9.3v9.3m8.7-9.3v9.3m8.7-9.3v9.3m8.7-9.3v9.3m-44.9.9h54.9"/><path class="st20" d="M1559.5 479.1h6.1v8.3h-6.1z"/><path class="st14" d="M1541.7 490.3h50.5v11h-50.5z"/></g><path class="st0" d="M202.5 526.9h383v11h-383zm1023.4 0h177v11h-177zm-614.2 0h586.2v11H611.7z"/>

<path class="st21" d="m -2000,-0.3 5800,0 0,675.2 -5800,0 z"/>

<g><path class="st4" d="M45.1 678.3l24.1 19"/><circle class="st22" cx="67.7" cy="676.2" r="31.6"/><path class="st23" d="M67.7 644.6c17.4 0 31.6 14.1 31.6 31.6 0 17.4-14.1 31.6-31.6 31.6"/><path class="st7" d="M67.6 700.1v26.4m0-47.9v21m0 .5l12.3-11.4"/><circle class="st24" cx="83.2" cy="685.4" r="4.4"/><circle class="st3" cx="67.6" cy="674.2" r="4.4"/><path class="st7" d="M67.5 700.1l-12.4-11.4"/><circle class="st24" cx="51.8" cy="685.4" r="4.4"/><path class="st4" d="M67.6 725.5L56 737.1m12-11.6l11.6 11.6"/><circle class="st22" cx="1585.2" cy="672.2" r="23.9"/><path class="st23" d="M1585.2 648.3c13.2 0 23.9 10.7 23.9 23.9s-10.7 23.9-23.9 23.9"/><path class="st7" d="M1585.1 690.3v20m0-36.3v15.9m0 .4l9.3-8.6"/><circle class="st24" cx="1597" cy="679.1" r="3.3"/><circle class="st3" cx="1585.1" cy="670.7" r="3.3"/><path class="st7" d="M1585 690.3l-9.3-8.6"/><circle class="st24" cx="1573.1" cy="679.1" r="3.3"/><path class="st4" d="M1585.1 709.5l-8.8 8.8m9.1-8.8l8.8 8.8"/><g><circle class="st22" cx="110.2" cy="699.2" r="23.9"/><path class="st23" d="M110.2 675.3c13.2 0 23.9 10.7 23.9 23.9s-10.7 23.9-23.9 23.9"/><path class="st7" d="M110.1 717.3v20m0-36.3v15.9m0 .4l9.4-8.6"/><circle class="st24" cx="122" cy="706.1" r="3.3"/><circle class="st3" cx="110.1" cy="697.7" r="3.3"/><path class="st7" d="M110 717.3l-9.3-8.6"/><circle class="st24" cx="98.2" cy="706.1" r="3.3"/><path class="st4" d="M110.1 736.5l-8.7 8.8m9-8.8l8.8 8.8"/></g><g><circle class="st22" cx="1704.8" cy="666.1" r="21.5"/><path class="st23" d="M1704.8 644.7c11.9 0 21.5 9.6 21.5 21.5s-9.6 21.5-21.5 21.5"/><path class="st7" d="M1704.7 682.4v17.9m0-32.6V682m0 .4l8.4-7.8"/><circle class="st24" cx="1715.3" cy="672.4" r="3"/><circle class="st3" cx="1704.7" cy="664.8" r="3"/><path class="st7" d="M1704.6 682.4l-8.4-7.8"/><circle class="st24" cx="1694" cy="672.4" r="3"/><path class="st4" d="M1704.7 699.6l-7.9 7.9m8.2-7.9l7.8 7.9"/></g><g><circle class="st22" cx="1742.4" cy="674.1" r="24.6"/><path class="st23" d="M1742.4 649.5c13.6 0 24.6 11 24.6 24.6 0 13.6-11 24.6-24.6 24.6"/><path class="st7" d="M1742.3 692.8v20.5m0-37.3v16.4m0 .4l9.6-8.9"/><circle class="st24" cx="1754.5" cy="681.3" r="3.4"/><circle class="st3" cx="1742.3" cy="672.5" r="3.4"/><path class="st7" d="M1742.2 692.8l-9.6-8.9"/><circle class="st24" cx="1730" cy="681.3" r="3.4"/><path class="st4" d="M1742.3 712.5l-9 9.1m9.3-9.1l9 9.1"/></g><g><circle class="st22" cx="1638.6" cy="672.4" r="31.6"/><path class="st23" d="M1638.6 640.9c17.4 0 31.6 14.1 31.6 31.6 0 17.4-14.1 31.6-31.6 31.6"/><path class="st7" d="M1638.4 696.4v26.3m0-47.9v21.1m0 .5l12.4-11.4"/><circle class="st24" cx="1654.1" cy="681.6" r="4.4"/><circle class="st3" cx="1638.4" cy="670.4" r="4.4"/><path class="st7" d="M1638.3 696.4L1626 685"/><circle class="st24" cx="1622.6" cy="681.6" r="4.4"/><path class="st4" d="M1638.4 721.7l-11.6 11.6m12-11.6l11.6 11.6"/></g><g><circle class="st22" cx="1435.1" cy="677.6" r="33.5"/><path class="st23" d="M1435.1 644c18.5 0 33.5 15 33.5 33.5s-15 33.5-33.5 33.5"/><path class="st7" d="M1434.9 703v28m0-50.9v22.3m0 .6l13.2-12.1"/><circle class="st24" cx="1451.6" cy="687.3" r="4.7"/><circle class="st3" cx="1434.9" cy="675.4" r="4.7"/><path class="st7" d="M1434.8 703l-13.1-12.1"/><circle class="st24" cx="1418.2" cy="687.3" r="4.7"/><path class="st4" d="M1434.9 729.9l-12.3 12.3m12.8-12.3l12.3 12.3"/></g></g></svg>