<svg width="0" height="0" version="1.1" xmlns="http://www.w3.org/2000/svg">
<defs>

<symbol id="business" viewBox="0 0 27 30">
	<path d="M24.668 21.464a1.478 1.478 0 0 1-2.016.54 1.477 1.477 0 1 1 2.016-.54m-9.73 5.002c0 .814-.663 1.476-1.477 1.476a1.478 1.478 0 0 1-1.474-1.476 1.478 1.478 0 0 1 2.953 0M4.95 21.12c-.102.38-.347.698-.688.895-.34.197-.74.25-1.12.147a1.477 1.477 0 0 1-.356-2.704 1.477 1.477 0 0 1 2.164 1.66m-.154-11.112a1.478 1.478 0 0 1-2.016.54 1.477 1.477 0 0 1 .74-2.753A1.478 1.478 0 0 1 4.8 10.007m17.16-1.13c.102-.382.347-.7.688-.897a1.466 1.466 0 0 1 1.12-.148c.38.102.7.346.896.688.197.34.25.74.148 1.12a1.478 1.478 0 1 1-2.85-.764m3.188 8.805a3.523 3.523 0 0 0-4.044.375l-5.21-3.01c0-.03-.004-.06-.006-.092l5.22-3.014a3.54 3.54 0 0 0 2.282.835c.596 0 1.2-.152 1.752-.47a3.494 3.494 0 0 0 1.64-2.136 3.495 3.495 0 0 0-.353-2.67 3.494 3.494 0 0 0-2.135-1.638 3.495 3.495 0 0 0-2.668.352 3.494 3.494 0 0 0-1.64 2.136 3.498 3.498 0 0 0-.057 1.55l-5.36 3.05a.755.755 0 0 0-.097-.003V6.84c1.413-.485 2.415-1.786 2.415-3.31 0-1.94-1.54-3.518-3.478-3.518-1.94 0-3.576 1.578-3.576 3.517 0 1.526 1.03 2.83 2.285 3.313v6.113L6.9 9.91c.258-1.42-.32-2.877-1.64-3.662h.01c-1.68-.942-3.83-.405-4.8 1.275a3.514 3.514 0 0 0 1.29 4.797c.552.32 1.157.467 1.753.467a3.54 3.54 0 0 0 2.292-.845l5.295 3.056-5.298 3.06a3.522 3.522 0 0 0-4.034-.367A3.52 3.52 0 0 0 .48 22.497a3.494 3.494 0 0 0 2.136 1.64 3.496 3.496 0 0 0 2.668-.35 3.494 3.494 0 0 0 1.64-2.138 3.5 3.5 0 0 0 .057-1.553l5.176-3.032c.014.01-.036.017-.036.026v6.066c-1.257.487-2.254 1.787-2.254 3.31 0 1.94 1.617 3.518 3.556 3.518 1.94 0 3.458-1.578 3.458-3.517 0-1.53-.994-2.834-2.407-3.317v-5.996c.157-.02.147-.04.18-.06l5.24 3a3.536 3.536 0 0 0 3.48 4.148c1.217 0 2.407-.63 3.058-1.758a3.52 3.52 0 0 0-1.28-4.803"/>
</symbol>

<symbol id="design-ux" viewBox="0 0 33 25">
	<path d="M32.73 11.76c-.064-.118-1.577-2.905-4.298-5.718C24.75 2.237 20.602.225 16.436.225S8.122 2.237 4.44 6.042C1.718 8.855.206 11.642.142 11.76a1.19 1.19 0 0 0-.12.788c-.05.26-.014.537.12.788.064.117 1.576 2.904 4.298 5.717 3.682 3.805 7.83 5.817 11.996 5.817 4.165 0 8.313-2.012 11.996-5.817 2.72-2.813 4.234-5.6 4.297-5.717.133-.25.17-.53.12-.788a1.19 1.19 0 0 0-.12-.79zM16.435 22.477c-7.64 0-12.922-8.144-13.99-9.93 1.064-1.79 6.328-9.93 13.99-9.93 7.64 0 12.922 8.142 13.988 9.93-1.067 1.788-6.348 9.93-13.988 9.93zm1.874-10.03c0-.572.464-1.195 1.04-1.195h2.535c-.498-2.39-2.75-4.38-5.457-4.38-3.072 0-5.562 2.547-5.562 5.618 0 3.072 2.49 5.634 5.56 5.634 2.727 0 4.993-2.088 5.468-4.48H19.35c-.575 0-1.04-.622-1.04-1.195z"/>
</symbol>

<symbol id="front-end" viewBox="0 0 28 29">
	<path d="M13.48 2.728a1.364 1.364 0 0 0 0-2.728H1.606C1.208 0 .77.09.522.36.252.61 0 .888 0 1.285V13.16a1.364 1.364 0 0 0 2.728 0V2.728H13.48zm13.156 10.747c-.754 0-1.364.61-1.364 1.365v10.753H14.84a1.364 1.364 0 0 0 0 2.728h11.876c.397 0 .673-.25.923-.52.27-.25.36-.686.36-1.083V14.84c0-.754-.61-1.365-1.365-1.365zm-13.92 6.303a1.204 1.204 0 0 0 2.407 0v-3.35l3.123 1.756c.19.11.437.162.64.162.417 0 .842-.216 1.065-.602a1.2 1.2 0 0 0-.43-1.645l-2.98-1.726 2.99-1.725a1.202 1.202 0 0 0 .44-1.645c-.33-.576-1.148-.773-1.723-.44l-3.123 1.756V8.865a1.204 1.204 0 0 0-2.407 0v3.394l-2.85-1.693a1.16 1.16 0 0 0-1.605.44c-.33.577-.114 1.313.462 1.645l2.996 1.725L8.74 16.1a1.205 1.205 0 0 0 .607 2.245c.203 0 .33-.052.52-.162l2.85-1.692v3.287z"/>
</symbol>

<symbol id="infraestrutura" viewBox="0 0 30 30">
	<path d="M15.01 25.042c-5.51 0-9.99-4.483-9.99-9.992 0-5.51 4.48-9.992 9.99-9.992s9.992 4.483 9.992 9.992c0 5.51-4.482 9.992-9.99 9.992m14.664-12.095l-2.477-.46a12.382 12.382 0 0 0-1.755-4.263l1.466-2.11a.4.4 0 0 0 .005-.566L24.51 3.14a.4.4 0 0 0-.564 0l-2.11 1.456a12.422 12.422 0 0 0-4.262-1.772l-.46-2.47c0-.22-.18-.354-.4-.354h-3.406c-.22 0-.4.134-.4.354l-.46 2.493a12.393 12.393 0 0 0-4.264 1.76l-2.11-1.46a.4.4 0 0 0-.566-.004L3.1 5.55a.4.4 0 0 0 0 .564l1.457 2.11a12.418 12.418 0 0 0-1.772 4.262l-2.45.462c-.22 0-.335.18-.335.4v3.405c0 .22.115.4.335.4l2.482.46a12.39 12.39 0 0 0 1.756 4.263l-1.464 2.11a.4.4 0 0 0-.007.566l2.407 2.41a.4.4 0 0 0 .565 0l2.11-1.458c1.28.838 2.718 1.45 4.262 1.772l.46 2.42c0 .22.18.304.4.304h3.407c.22 0 .4-.084.4-.304l.46-2.468a12.377 12.377 0 0 0 4.263-1.748l2.11 1.47a.4.4 0 0 0 .566.005l2.408-2.406a.4.4 0 0 0 0-.565l-1.454-2.11a12.418 12.418 0 0 0 1.772-4.262l2.44-.462c.22 0 .323-.18.323-.4v-3.404c0-.22-.103-.4-.323-.4zM15.01 10.52a4.536 4.536 0 0 0-4.53 4.53 4.536 4.536 0 0 0 4.53 4.53 4.535 4.535 0 0 0 4.53-4.53 4.535 4.535 0 0 0-4.53-4.53zm0 6.56a2.03 2.03 0 0 1-2.03-2.03c0-1.12.91-2.03 2.03-2.03 1.12 0 2.03.91 2.03 2.03 0 1.12-.91 2.03-2.03 2.03z"/>
</symbol>

<symbol id="mobile" viewBox="0 0 22 33">
	<path d="M17.612 29.584H3.604c-.384 0-.662-.304-.662-.76v-5.51h15.332v5.51c0 .456-.278.76-.662.76zM3.604 2.942h14.008c.384 0 .662.29.662.654v17.396H2.942V3.596c0-.364.278-.654.662-.654zm17.613.697A3.64 3.64 0 0 0 17.577 0H3.64A3.64 3.64 0 0 0 0 3.64v25.24a3.64 3.64 0 0 0 3.64 3.64h13.937a3.64 3.64 0 0 0 3.64-3.64V3.64zM10.837 25h-.175C9.744 25 9 25.783 9 26.75s.744 1.75 1.662 1.75h.175c.92 0 1.663-.783 1.663-1.75S11.756 25 10.837 25"/>
</symbol>

<symbol id="programacao" viewBox="0 0 25 29">
	<path d="M13.656 14.19l-5.16-5.158a1.548 1.548 0 1 0-2.188 2.19l4.205 4.204-4.205 4.205a1.548 1.548 0 0 0 2.19 2.19l5.158-5.157c.338-.34.487-.794.446-1.236.04-.44-.108-.897-.446-1.235zm9.66 5.363h-7.494a1.548 1.548 0 0 0 0 3.096h7.495a1.548 1.548 0 0 0 0-3.098zm.082 6.355H3.38c-.264 0-.447-.212-.447-.477V3.48c0-.266.183-.547.448-.547H23.4A1.466 1.466 0 0 0 23.4 0H3.38C1.495 0 0 1.592 0 3.48v21.95c0 1.888 1.494 3.41 3.38 3.41H23.4a1.466 1.466 0 0 0 0-2.932z"/>
</symbol>

</defs>
</svg>