<svg version="1" xmlns="http://www.w3.org/2000/svg" viewBox="0 0 50 50"><path fill="#c7f464" d="M41.1 23.3c-.1-.4-.6-.5-.9-.3-.5.3-.9.5-1.5.7-1.8.7-3.7.6-5.4 0L10.7 32l2.7 7.3c.4 1 1.5 1.6 2.5 1.2l6.5-2.4c.5-.2.9.3.8.7-.6 2-.4 4.3.9 6.3 1.6 2.7 4.8 4.2 7.9 3.7 5.1-.8 8-6 6.3-10.6-.6-1.6-1.7-2.9-3-3.9-.4-.3-.3-.9.1-1l6.5-2.4c1-.4 1.6-1.5 1.2-2.5l-2-5.1z"/><path fill="#b2db59" d="M36 34.8l-12.8 4.7c-.3 1.8-.1 3.8 1 5.6 1.6 2.7 4.8 4.2 7.9 3.7 5.1-.8 8-6 6.3-10.6-.5-1.4-1.4-2.5-2.4-3.4z"/><path fill="#444" d="M30.7 50c-3.1 0-6.1-1.6-7.7-4.4-1.1-1.9-1.6-4.1-1.2-6.2l-5.6 2c-1.6.6-3.4-.2-4-1.8L5.8 21.9c-.2-.6.1-1.2.7-1.4.6-.2 1.2.1 1.4.7l6.4 17.7c.2.4.7.7 1.1.5L22 37c.6-.2 1.3-.1 1.7.3.5.4.7 1.1.5 1.7-.5 1.8-.3 3.8.7 5.4 1.4 2.3 4.1 3.6 6.8 3.2 2.1-.3 3.8-1.5 4.9-3.3 1-1.8 1.2-3.9.5-5.8-.5-1.4-1.4-2.5-2.6-3.3-.5-.4-.8-1-.7-1.6.1-.6.5-1.2 1.1-1.4l6.5-2.4c.4-.2.7-.7.5-1.1l-1.7-4.6c-.4.2-.7.4-1.1.5-2.3.8-4.8.7-7-.3s-3.9-2.9-4.7-5.2c-1.6-4.6.9-9.9 5.5-11.5l1.2-.3-1.7-4.6c-.2-.4-.6-.7-1.1-.5L13.2 8.9c-.6.2-1.2-.1-1.4-.7-.2-.6.1-1.2.7-1.4L30.7.2c1.6-.6 3.4.2 4 1.8l1.9 5.2c.2.5.1 1-.1 1.4-.3.4-.7.7-1.2.8-.5.1-.9.2-1.3.3-3.4 1.2-5.3 5.2-4.1 8.7.6 1.7 1.9 3.1 3.5 3.9 1.7.8 3.5.9 5.2.2.4-.2.9-.4 1.3-.6.5-.3 1-.3 1.5-.2.5.2.9.5 1 1l1.9 5.2c.3.8.2 1.6-.1 2.4-.3.7-1 1.3-1.7 1.6l-5.6 2c1.2 1 2.1 2.3 2.6 3.8.9 2.6.7 5.4-.7 7.7s-3.7 3.9-6.5 4.4c-.7.2-1.1.2-1.6.2zM22 38.5z"/></svg>