<svg version="1" xmlns="http://www.w3.org/2000/svg" viewBox="0 0 50 50"><path fill="#AFE55D" d="M34.332 30.57l5.45-20.343c.612-2.28-.74-4.625-3.022-5.235l-11.904-3.19c-2.28-.61-4.624.742-5.235 3.023l-9.233 34.46 23.945-8.716z"/><path fill="#C3FF68" d="M39.61 7.817c-.43-1.336-1.5-2.435-2.956-2.825L24.75 1.802c-2.28-.61-4.624.742-5.235 3.022l-3.06 11.42L39.61 7.818z"/><path fill="#444" d="M25.145 49.414c-.092 0-.185-.012-.277-.037l-11.904-3.19c-1.38-.368-2.53-1.252-3.245-2.49-.715-1.235-.904-2.675-.535-4.053L18.59 4.548c.368-1.378 1.253-2.53 2.49-3.244 1.235-.713 2.676-.9 4.054-.534l11.904 3.19c1.378.37 2.53 1.254 3.244 2.49.714 1.236.903 2.676.534 4.055l-5.45 20.34c-.153.57-.74.908-1.31.755-.57-.153-.907-.738-.755-1.308l5.45-20.34c.223-.827.11-1.69-.32-2.432-.427-.74-1.12-1.272-1.946-1.494L24.58 2.836c-.826-.222-1.69-.108-2.432.32-.74.428-1.272 1.12-1.494 1.947L11.25 40.198c-.222.827-.108 1.692.32 2.433.428.743 1.12 1.273 1.947 1.495l11.904 3.19c.57.152.91.737.757 1.307-.13.477-.56.792-1.032.792z"/><path fill="#444" d="M19.09 29.593c.135 0 .272.018.407.054.835.224 1.332 1.085 1.108 1.92-.183.684-.805 1.163-1.512 1.163-.136 0-.273-.018-.408-.054-.404-.108-.742-.368-.952-.73-.21-.363-.265-.785-.157-1.19.184-.685.806-1.163 1.513-1.163m0-1.71c-1.448 0-2.772.966-3.165 2.43-.468 1.748.57 3.545 2.317 4.014.284.076.57.112.85.112 1.447 0 2.77-.967 3.164-2.43.468-1.75-.57-3.546-2.317-4.015-.285-.076-.57-.112-.85-.112zM21.007 22.436c.136 0 .273.018.407.054.404.108.742.368.952.73.21.363.265.785.157 1.19-.183.683-.805 1.162-1.512 1.162-.135 0-.272-.018-.407-.054-.404-.108-.742-.368-.952-.73-.208-.363-.264-.785-.156-1.19.184-.684.806-1.162 1.513-1.162m0-1.71c-1.448 0-2.772.966-3.165 2.43-.468 1.748.57 3.545 2.317 4.014.283.076.568.112.85.112 1.446 0 2.77-.966 3.163-2.43.468-1.748-.57-3.545-2.317-4.014-.283-.076-.57-.112-.85-.112zM22.924 15.28c.136 0 .273.017.407.053.405.108.743.368.953.73.21.363.265.785.157 1.19-.183.683-.805 1.162-1.512 1.162-.136 0-.273-.018-.408-.054-.835-.223-1.332-1.084-1.108-1.92.184-.683.806-1.16 1.512-1.16m0-1.71c-1.447 0-2.77.965-3.164 2.43-.468 1.747.57 3.544 2.317 4.013.284.076.57.112.85.112 1.447 0 2.77-.966 3.164-2.43.47-1.748-.568-3.545-2.316-4.014-.284-.075-.57-.11-.85-.11z"/><g><path fill="#444" d="M30.907 17.418c.136 0 .273.018.408.054.835.224 1.332 1.085 1.108 1.92-.183.684-.805 1.163-1.512 1.163-.135 0-.272-.018-.407-.054-.404-.107-.742-.367-.952-.73-.208-.362-.264-.784-.156-1.188.185-.686.806-1.164 1.513-1.164m0-1.71c-1.447 0-2.77.966-3.164 2.43-.468 1.748.57 3.545 2.317 4.014.284.076.57.112.85.112 1.447 0 2.77-.966 3.164-2.43.468-1.748-.57-3.545-2.317-4.014-.284-.076-.57-.112-.85-.112zM28.99 24.575c.135 0 .272.018.407.054.404.107.742.367.952.73.208.362.264.784.156 1.188l-1.918 7.157c-.183.684-.805 1.162-1.512 1.162-.136 0-.273-.018-.408-.054-.835-.224-1.332-1.085-1.11-1.92l1.92-7.156c.183-.684.805-1.162 1.51-1.162m0-1.71c-1.446 0-2.77.966-3.163 2.43l-1.918 7.157c-.468 1.748.57 3.545 2.318 4.014.284.076.57.112.85.112 1.447 0 2.77-.966 3.164-2.43l1.917-7.157c.468-1.747-.57-3.544-2.317-4.013-.284-.075-.57-.112-.85-.112z"/></g><g><path fill="#444" d="M31.578 7.955l-3.716-.996c-.418-.113-.666-.543-.554-.96.112-.42.542-.667.96-.555l3.716.996c.418.113.666.543.554.96-.112.42-.54.667-.96.555z"/></g></svg>