<svg version="1" xmlns="http://www.w3.org/2000/svg" viewBox="0 0 50 50"><path fill="#E589EF" d="M41.555 25.873V3.22c0-1.083-.878-1.96-1.96-1.96H10.406c-1.083 0-1.962.878-1.962 1.96v34.704l33.11-12.05z"/><path fill="#F799FF" d="M41.362 2.387c-.314-.664-.985-1.127-1.77-1.127H10.408c-1.083 0-1.962.878-1.962 1.96V14.37l32.917-11.98z"/><g fill="#444"><path d="M39.593.034H10.407C8.65.034 7.22 1.464 7.22 3.222V46.78c0 1.758 1.43 3.187 3.187 3.187h23.177c.677 0 1.226-.55 1.226-1.226 0-.676-.55-1.225-1.226-1.225H10.407c-.405 0-.735-.33-.735-.735v-5.034h27.76c.678 0 1.227-.55 1.227-1.226s-.55-1.226-1.227-1.226H9.67v-5.77H40.33v2.885c0 .676.55 1.225 1.226 1.225.677 0 1.226-.55 1.226-1.226V3.22c0-1.757-1.43-3.186-3.187-3.186zm.736 31.036H9.67V25.3H40.33v5.77zM9.67 22.847V3.22c0-.404.33-.734.736-.734h29.187c.405 0 .735.33.735.735v19.627H9.67z"/><path d="M13.717 29.166H25c.542 0 .98-.44.98-.98s-.438-.982-.98-.982H13.717c-.542 0-.98.44-.98.98s.438.982.98.982zM13.717 35.426c-.542 0-.98.44-.98.98s.438.982.98.982H25c.542 0 .98-.44.98-.98s-.438-.982-.98-.982H13.717zM13.717 43.648c-.542 0-.98.44-.98.98s.438.982.98.982H25c.542 0 .98-.44.98-.98s-.438-.982-.98-.982H13.717z"/><circle cx="33.584" cy="28.185" r="1.509"/><circle cx="33.584" cy="36.407" r="1.509"/><circle cx="33.584" cy="44.629" r="1.509"/></g></svg>