<svg version="1" xmlns="http://www.w3.org/2000/svg" viewBox="0 0 50 50"><g fill="#46B8B0"><path d="M41.866 16.777l-.09-.405h-1.465c-.57 0-1.016.453-1.057 1.02-.008.12-.028.233-.04.35l2.653-.965zM18.866 17.21l-5.998 10.12 7.62-2.772 1.986-3.353.35.387c1.1 1.217 3.01 1.217 4.11 0l.346-.384.428.722 4.916-1.79-1.735-2.927.96-1.063c.37-.41.575-.945.575-1.498V9.126c0-1.612-1.307-2.918-2.918-2.918h-1.574V2.16c0-.584-.475-1.06-1.06-1.06h-3.99c-.586 0-1.06.475-1.06 1.06v4.047h-1.575c-1.612 0-2.918 1.306-2.918 2.918v5.525c0 .554.205 1.087.577 1.498l.96 1.06z"/></g><path fill="#4ECDC4" d="M18.55 16.86l13.877-5.05V9.125c0-1.612-1.307-2.918-2.918-2.918h-1.575V2.16c0-.584-.474-1.06-1.06-1.06h-3.99c-.585 0-1.06.475-1.06 1.06v4.047h-1.573c-1.612 0-2.918 1.306-2.918 2.918v5.525c0 .554.205 1.087.576 1.498l.64.712z"/><g fill="#444"><path d="M46.762 44.907c-.56 0-1.014.454-1.014 1.014v1.62l-2.645-1.83-6.577-11.098c.884-.548 1.73-1.16 2.53-1.835l3.38 5.705c.287.482.908.64 1.39.355.483-.285.642-.907.356-1.39l-4.27-7.206c1.93-2.03 3.414-4.412 4.36-7.053.19-.527-.086-1.108-.613-1.297-.53-.188-1.11.086-1.298.613-1.318 3.68-3.79 6.814-7.146 9.065-1.838 1.232-3.953 2.114-6.116 2.553-4.502.914-9.096.18-12.94-2.065l-.87-.51L6.896 45.71l-2.645 1.83v-3.473l15.99-26.984-1.458-1.614c-.203-.226-.315-.517-.315-.82V9.126c0-1.05.853-1.904 1.903-1.904h2.588l.046-5.105 4.036.045v5.06h2.588c1.05 0 1.904.854 1.904 1.904v5.525c0 .304-.112.595-.315.82l-1.462 1.616 6.067 10.238.922-1.067c2.147-2.488 3.405-5.527 3.64-8.79.003-.043.025-.08.046-.08h1.465c.56 0 1.014-.454 1.014-1.014s-.454-1.014-1.014-1.014h-1.465c-1.1 0-1.988.843-2.07 1.962-.168 2.344-.948 4.556-2.27 6.472l-3.826-6.455.46-.51c.54-.598.837-1.372.837-2.178V9.126c0-2.17-1.764-3.933-3.932-3.933h-.56v-3.03c0-1.145-.93-2.075-2.074-2.075h-3.99c-1.145 0-2.075.93-2.075 2.074v3.03h-.56c-2.168 0-3.932 1.765-3.932 3.934v5.525c0 .807.298 1.58.84 2.18l.455.505L2.223 43.51v4.748c0 .617.34 1.178.886 1.465.242.127.505.19.766.19.33 0 .66-.1.94-.297l3.6-2.492L16.02 34.29c4.085 2.113 8.832 2.76 13.483 1.817 1.587-.322 3.15-.86 4.617-1.58l7.464 12.597 3.6 2.492c.28.196.61.296.94.296.262 0 .525-.063.767-.19.547-.285.887-.846.887-1.464V45.92c0-.56-.454-1.013-1.015-1.013z"/><path d="M26.304 20.912c-.674.747-1.93.746-2.604 0l-1.273-1.41-5.607 9.462.885.514c2.295 1.332 4.916 2.037 7.58 2.037 2.48 0 4.942-.617 7.12-1.782l.934-.5-5.766-9.728-1.27 1.407zm-6.674 7.29l3.187-5.378c1.267.895 3.1.896 4.367.002l3.306 5.58c-3.425 1.486-7.5 1.407-10.86-.204z"/></g></svg>