<svg version="1" xmlns="http://www.w3.org/2000/svg" viewBox="0 0 50 50"><path fill="#A6C1C2" d="M9.53 15.602l4.368 3.06 6.22 4.36h.002c-.377.743-.595 1.58-.595 2.47v4.642c0 1.29.458 2.467 1.206 3.402l19.987-7.275 1.077-1.536c.265-.38.47-.777.63-1.183.867-2.273.123-4.928-1.96-6.384l-4.368-3.06-12.753-8.924-4.367-3.06c-2.084-1.455-4.822-1.25-6.658.347h-.008c-.33.28-.63.62-.893.992l-1.605 2.29-1.613 2.3c-.265.38-.472.778-.63 1.19-.86 2.267-.115 4.914 1.96 6.37z"/><path fill="#B9D7D9" d="M26.53 7.406l-3.19-2.234-4.368-3.06C16.888.657 14.15.862 12.314 2.46h-.008c-.33.28-.63.62-.893.992l-1.605 2.29-1.613 2.3c-.264.38-.47.778-.628 1.19-.617 1.627-.396 3.443.54 4.88L26.53 7.406z"/><path fill="#444" d="M41.09 16.263l-3.474-2.433v-.002l-8.014-5.61-10-7c-2.338-1.633-5.434-1.555-7.67.15l-.33.26c-.382.326-.744.727-1.08 1.198L7.303 7.42c-.307.442-.56.922-.752 1.426-1.06 2.79-.09 5.935 2.354 7.65l3.473 2.433 6.4 4.483c-.22.654-.344 1.352-.344 2.08v4.64c0 2.592 1.513 4.83 3.697 5.896v6.475h-5.888c-1.058 0-1.92.86-1.92 1.918v3.62c0 1.057.862 1.917 1.92 1.917h17.504c1.058 0 1.92-.86 1.92-1.918v-3.62c0-1.057-.862-1.917-1.92-1.917h-1.52c-.602 0-1.09.49-1.09 1.092 0 .603.488 1.092 1.09 1.092h1.255v3.087H16.51V44.69h10.26c.603 0 1.092-.49 1.092-1.093s-.49-1.092-1.092-1.092h-2.453v-5.808h1.362v2.078c0 .603.49 1.092 1.092 1.092.602 0 1.09-.49 1.09-1.092V36.03c1.62-.79 2.872-2.223 3.41-3.97.905.44 1.884.66 2.86.66 1.392 0 2.778-.444 3.933-1.32l.34-.27c.395-.345.752-.742 1.07-1.188l3.22-4.594c.303-.437.555-.91.75-1.416 1.07-2.802.1-5.956-2.353-7.67zm-16.095 2.67c-2.105 0-3.976 1-5.178 2.545l-4.4-3.083 8.194-11.702 4.67 3.267 6.294 4.407-4.716 6.737c-1.202-1.33-2.934-2.172-4.863-2.172zm-14.837-4.225c-1.28-.897-1.94-2.383-1.825-3.878l3.347 2.344c.153.107.328.158.5.158.275 0 .546-.13.716-.372.276-.395.18-.94-.215-1.217L8.856 9.06c.074-.133.15-.264.24-.39L10.2 7.09l3.852 2.696c.153.107.328.158.5.158.275 0 .546-.13.716-.372.276-.395.18-.94-.215-1.217l-3.85-2.697 1.102-1.573c.094-.132.19-.254.29-.368l3.828 2.68c.153.108.328.16.5.16.275 0 .546-.13.716-.373.277-.395.18-.94-.214-1.217L14.08 2.624c1.365-.623 2.987-.514 4.27.382l3.473 2.432L13.63 17.14l-3.472-2.432zm19.216 15.427c0 2.414-1.964 4.378-4.378 4.378s-4.378-1.964-4.378-4.378v-4.642c0-2.414 1.964-4.378 4.378-4.378s4.378 1.964 4.378 4.378v4.642zm2.263-.383l-.08-.056v-4.203c0-.835-.163-1.632-.45-2.368l5.256-7.507 3.475 2.433c1.285.9 1.945 2.39 1.828 3.89l-3.015-2.112c-.395-.275-.94-.18-1.216.215s-.18.94.215 1.217l3.49 2.445c-.074.135-.152.268-.238.393l-1.107 1.58-3.515-2.462c-.396-.277-.94-.18-1.217.215-.276.396-.18.94.215 1.218l3.515 2.46-1.103 1.575c-.092.13-.203.237-.306.355l-3.475-2.434c-.396-.276-.94-.18-1.218.215-.276.394-.18.94.215 1.216l3.006 2.105c-1.368.617-2.992.505-4.276-.388z"/></svg>