<svg version="1" xmlns="http://www.w3.org/2000/svg" viewBox="0 0 50 50"><path fill="#fe4365" d="M45.2 23.3L46.3 5c.1-2-1.5-3.6-3.4-3.6H7.1C5.1 1.4 3.6 3 3.7 5l2 32.7 39.5-14.4z"/><path fill="#e43c5a" d="M46.2 7.6l.2-2.5c.1-2-1.5-3.6-3.4-3.6H7.1c-2 0-3.5 1.6-3.4 3.6l1.1 17.6L46.2 7.6z"/><path fill="#444" d="M25.6 49.6c-.5 0-1.1-.1-1.6-.3L7.6 43.2c-1.7-.6-2.8-2.2-2.9-4L2.6 5.1c0-1.2.4-2.4 1.3-3.3S5.9.4 7.2.4H43c1.2 0 2.4.5 3.3 1.4s1.3 2.1 1.2 3.3l-2.1 34.2c0 .6-.5 1-1.1 1-.6 0-1-.5-1-1.1L45.2 5c0-.6-.2-1.3-.6-1.7-.5-.5-1.1-.7-1.7-.7H7.1c-.7 0-1.3.3-1.7.7-.5.4-.7 1-.6 1.7l2.1 34.1c0 1 .7 1.8 1.5 2.1l16.4 6.1c.5.2 1.2.2 1.7 0l4.4-1.6c.5-.2 1.2.1 1.4.6.2.6-.1 1.2-.6 1.4l-4.4 1.6c-.6.2-1.2.3-1.7.3z"/><path fill="#444" d="M18.8 32.4c-.3 0-.5-.1-.8-.3l-5.4-5.4c-.9-.9-.9-2.5 0-3.4l5.4-5.4c.4-.4 1.1-.4 1.5 0s.4 1.1 0 1.5l-5.4 5.4c-.1.1-.1.3 0 .4l5.4 5.4c.4.4.4 1.1 0 1.5-.2.2-.5.3-.7.3zM31.2 32.4c-.3 0-.5-.1-.8-.3-.4-.4-.4-1.1 0-1.5l5.4-5.4c.1-.1.1-.2.1-.2 0-.1 0-.1-.1-.2l-5.4-5.4c-.4-.4-.4-1.1 0-1.5s1.1-.4 1.5 0l5.4 5.4c.9.9.9 2.5 0 3.4L32 32.1c-.2.2-.5.3-.8.3z"/><g><path fill="#444" d="M22.2 36.5h-.3c-.6-.2-.9-.7-.8-1.3l5.6-20.9c.2-.6.7-.9 1.3-.8.6.2.9.7.8 1.3l-5.6 20.9c-.1.5-.5.8-1 .8z"/></g></svg>