<svg version="1" xmlns="http://www.w3.org/2000/svg" viewBox="0 0 50 50"><path fill="#AFE55D" d="M43.943 22.196C42.423 13.18 34.583 6.31 25.136 6.31c-10.537 0-19.08 8.543-19.08 19.08 0 3.52.958 6.813 2.62 9.643l35.267-12.837z"/><path fill="#C3FF68" d="M34.71 9.4c-2.99-1.95-6.562-3.09-10.4-3.09-8.603 0-15.873 5.695-18.254 13.52L34.71 9.4z"/><path fill="#444" d="M48.94 23.94h-3.844C44.56 13.685 36.313 5.44 26.06 4.906V1.06C26.06.475 25.586 0 25 0s-1.06.475-1.06 1.06v3.846c-4.75.248-9.07 2.152-12.39 5.143L7.243 5.743c-.414-.414-1.085-.414-1.5 0s-.413 1.085 0 1.5l4.306 4.304c-2.99 3.32-4.896 7.64-5.143 12.39H1.06C.475 23.94 0 24.415 0 25s.475 1.06 1.06 1.06h3.846c.535 10.253 8.78 18.5 19.033 19.035v3.845c0 .586.474 1.06 1.06 1.06.585 0 1.06-.475 1.06-1.06v-5.938H25c-9.926 0-18.002-8.076-18.002-18.002 0-4.582 1.735-8.757 4.565-11.938l2.535 2.535c-2.262 2.615-3.507 5.91-3.507 9.402 0 7.945 6.465 14.408 14.41 14.408S39.41 32.945 39.41 25c0-3.298-1.086-6.402-3.138-8.976-.292-.366-.826-.427-1.192-.135-.367.29-.427.825-.135 1.19 1.81 2.272 2.768 5.01 2.768 7.92 0 7.01-5.703 12.713-12.713 12.713S12.288 32.01 12.288 25c0-3.04 1.066-5.91 3.01-8.203l2.578 2.578c-1.266 1.597-1.958 3.557-1.958 5.625 0 5.008 4.075 9.083 9.083 9.083s9.084-4.075 9.084-9.083c0-.35-.285-.636-.636-.636s-.636.285-.636.636c0 4.307-3.504 7.81-7.81 7.81S17.19 29.307 17.19 25c0-1.728.565-3.365 1.595-4.716l4.194 4.194c-.044.168-.075.34-.075.523 0 1.158.938 2.097 2.096 2.097 1.158 0 2.097-.938 2.097-2.096 0-1.156-.938-2.095-2.096-2.095-.18 0-.353.03-.52.074L13.06 11.562c3.18-2.83 7.356-4.565 11.938-4.565 9.926 0 18.002 8.075 18.002 18v1.06h5.938c.586 0 1.06-.474 1.06-1.06 0-.584-.475-1.06-1.06-1.06z"/></svg>