<svg version="1" xmlns="http://www.w3.org/2000/svg" viewBox="0 0 50 50"><path fill="#FF6B6B" d="M45.7 24.94l1.74-12.614a.506.506 0 0 0-.28-.525L25.22 1.19a.502.502 0 0 0-.44 0L2.84 11.8a.506.506 0 0 0-.28.526l3.716 26.96L45.7 24.94z"/><path fill="#E56060" d="M37.947 7.345L25.22 1.19a.502.502 0 0 0-.44 0L2.84 11.8a.506.506 0 0 0-.28.526l1.036 7.52 34.35-12.5z"/><g fill="#444"><path d="M30.01 30.367l-5.22-10.852-4.672 10.852h9.89zm-5.136-6.778l2.448 5.088h-4.638l2.19-5.09z"/><path d="M47.618 10.85L25.682.24c-.433-.21-.93-.21-1.362-.002L2.383 10.85a1.557 1.557 0 0 0-.868 1.62L5.43 40.872c.074.54.432 1.01.934 1.223l18.022 7.698a1.56 1.56 0 0 0 1.245-.007l12.823-5.744c.207-.093.353-.254.46-.435.014-.006.028-.003.042-.01.42-.2.602-.702.403-1.123l-14.646-31.01-12.588 27.984h6.123l2.22-5.75h9.15l2.205 5.233a.845.845 0 0 0 1.557-.655l-2.64-6.267H19.308l-2.22 5.75h-2.352L24.75 15.5l12.617 26.717-12.372 5.542-17.516-7.48-3.82-27.7L25 2.256l21.34 10.323-2.133 15.46a1.056 1.056 0 0 0 2.09.29l2.188-15.858a1.558 1.558 0 0 0-.867-1.62z"/></g></svg>