<svg version="1" xmlns="http://www.w3.org/2000/svg" viewBox="0 0 50 50"><path fill="#CFF09E" d="M44.32 11.317C40.11 5.4 33.203 1.534 25.39 1.534 12.568 1.534 2.173 11.93 2.173 24.75c0 .633.032 1.257.082 1.877l42.064-15.31z"/><path fill="#DDF5BB" d="M36.023 4.114a23.102 23.102 0 0 0-10.634-2.58c-9.643 0-17.91 5.88-21.42 14.246L36.023 4.114z"/><g fill="#444"><path d="M2.065 22.65a1.096 1.096 0 0 0 1.246-.924 22.56 22.56 0 0 1 .376-1.905l3.67-.982c-.024.345-.054.687-.066 1.038a1.096 1.096 0 0 0 1.1 1.135c.588 0 1.075-.466 1.095-1.06a27.9 27.9 0 0 1 .115-1.713l5.754-1.542c.042.385.082.768.133 1.165a1.097 1.097 0 0 0 2.176-.28c-.064-.5-.12-.985-.168-1.46l10.377-2.78c.195.435.39.88.584 1.346a1.097 1.097 0 1 0 2.025-.845c-.153-.368-.31-.72-.466-1.074l5.753-1.542c.33.46.65.934.96 1.43a1.098 1.098 0 0 0 1.86-1.163c-.186-.298-.383-.58-.576-.867l3.67-.983c.443.468.873.95 1.28 1.46a1.097 1.097 0 0 0 1.72-1.365 24.555 24.555 0 0 0-1.78-1.98c-.02-.028-.047-.046-.07-.07A24.545 24.545 0 0 0 19.077 1.28 24.542 24.542 0 0 0 1.71 18.694c-.007.036-.022.068-.027.105a24.396 24.396 0 0 0-.548 2.603c-.084.6.33 1.157.93 1.246zm7.88-6.78c.88-4.59 2.953-8.306 5.85-10.536-.674 2.258-.9 5.36-.644 9.142L9.946 15.87zm7.376-1.976c-.366-6.387.777-10.076 2.33-10.494h.002c1.552-.42 4.387 2.206 7.264 7.923l-9.595 2.57zm11.764-3.152c-1.67-3.404-3.42-5.978-5.132-7.596 3.624.482 7.28 2.665 10.338 6.202l-5.206 1.394zm1.36-7.528a22.363 22.363 0 0 1 9.36 4.656l-3.17.85c-1.863-2.328-3.97-4.18-6.19-5.506zM10.21 8.636c-1.26 2.26-2.16 4.916-2.606 7.862l-3.17.85a22.332 22.332 0 0 1 5.776-8.712zM49.91 22.905a1.097 1.097 0 0 0-2.188.19 22.244 22.244 0 0 1-.526 7.082l-3.685.987c.024-.34.06-.673.073-1.017a1.097 1.097 0 0 0-1.058-1.135c-.592-.01-1.114.452-1.135 1.058-.02.574-.065 1.137-.12 1.695l-5.748 1.54c-.04-.38-.08-.754-.13-1.144a1.098 1.098 0 0 0-2.177.28c.062.494.116.97.164 1.44L23 36.66c-.193-.43-.385-.87-.577-1.328a1.098 1.098 0 0 0-2.026.847c.15.36.303.707.456 1.055l-5.752 1.54a27.51 27.51 0 0 1-.947-1.41 1.097 1.097 0 0 0-1.862 1.165c.182.29.37.57.56.85l-3.664.98c-.438-.465-.866-.944-1.27-1.45a1.1 1.1 0 0 0-1.54-.177 1.096 1.096 0 0 0-.177 1.542A24.564 24.564 0 0 0 31.79 48.72c.002 0 .003 0 .004-.002 3.035-.813 4.443-5.663 3.93-13.197l5.207-1.394a22.76 22.76 0 0 1-.88 3.295 1.097 1.097 0 1 0 2.07.734c.52-1.47.89-3.03 1.136-4.652L49 31.962l.163-.61a24.468 24.468 0 0 0 .746-8.447zm-28.116 16.35c1.67 3.405 3.42 5.98 5.132 7.598-3.625-.482-7.28-2.665-10.34-6.203l5.208-1.395zm-1.37 7.526a22.334 22.334 0 0 1-9.35-4.652l3.176-.85c1.857 2.32 3.955 4.177 6.173 5.503zm10.802-.18c-1.55.41-4.386-2.21-7.264-7.926l9.593-2.57c.366 6.39-.777 10.08-2.33 10.495z"/><path d="M42.055 13.34l-3.897 1.044 3.603 13.448 2.503-.67-1.268-4.734 1.88-.503c.873-.234 1.123-.417 1.716-.81.594-.39 1.055-.84 1.385-1.346.33-.508.53-1.062.6-1.662.073-.6.02-1.227-.153-1.877a4.92 4.92 0 0 0-.77-1.647 3.59 3.59 0 0 0-1.313-1.104c-.53-.264-1.152-.414-1.865-.448-.715-.036-1.52.067-2.42.308zm3.435 2.628c.19.262.333.572.43.932.1.378.136.735.107 1.072-.03.337-.127.642-.293.916a2.318 2.318 0 0 1-.714.72c-.31.206-.695.37-1.154.493l-1.395.375-1.292-4.827 1.395-.374c.46-.123.873-.176 1.243-.158.37.017.694.098.972.243.28.143.512.347.702.608zM4.55 31.503l4.63-1.24 1.575 5.877 2.52-.675-3.603-13.448-2.52.675 1.55 5.785-4.632 1.24-1.55-5.784L0 24.61l3.603 13.446 2.52-.675zM36 14.962l-10.61 2.844.55 2.055 4.064-1.088 3.053 11.392 2.502-.67L32.505 18.1l4.045-1.083zM22.066 18.696L11.454 21.54l.55 2.055 4.065-1.09L19.12 33.9l2.502-.67-3.053-11.393 4.047-1.084z"/></g></svg>