<svg version="1" xmlns="http://www.w3.org/2000/svg" viewBox="0 0 50 50"><path fill="#87d69b" d="M8.47 38.246l33.06-12.032V3.64a2.622 2.622 0 0 0-2.623-2.62H11.092A2.622 2.622 0 0 0 8.47 3.64v34.606z"/><path fill="#abe2b9" d="M41.53 4.355V3.64a2.622 2.622 0 0 0-2.623-2.62H11.092A2.622 2.622 0 0 0 8.47 3.64v12.747L41.53 4.355z"/><path fill="#444" d="M38.907 0H11.093a3.645 3.645 0 0 0-3.64 3.64v37.354a3.645 3.645 0 0 0 3.64 3.642h18.78V50l6.194-4.307v-6.756c0-.757-.615-1.372-1.37-1.372H18.843V2.04h20.064c.883 0 1.602.718 1.602 1.6v32.322a1.02 1.02 0 0 0 2.038 0V3.642A3.645 3.645 0 0 0 38.908 0zM9.49 3.64c0-.883.72-1.6 1.602-1.6h2.337v35.525H9.49V3.64zm24.538 35.963v5.024L31.913 46.1v-6.497h2.115zm-4.154 2.993h-18.78c-.884 0-1.603-.72-1.603-1.602v-1.39h20.385v2.992zm-12.66-5.03H15.06V2.038h2.153v35.525z"/></svg>