<svg viewBox="0 0 34 40" xmlns="http://www.w3.org/2000/svg"><path d="M32.425 4.422h-9.888C21.93 2.026 19.76.245 17.175.245s-4.755 1.78-5.362 4.177H1.926c-.75 0-1.356.606-1.356 1.354v4.968c0 .748.607 1.354 1.356 1.354h.9v21c0 .746.605 1.353 1.355 1.353h4.173l-.62 3.45a1.355 1.355 0 0 0 1.338 1.594c.645 0 1.217-.46 1.335-1.115l.704-3.93h12.136l.703 3.93a1.355 1.355 0 0 0 2.67-.48L26 34.45h4.17c.75 0 1.356-.606 1.356-1.353v-21h.9c.748 0 1.355-.605 1.355-1.353V5.776c0-.748-.606-1.354-1.354-1.354zm-15.25-1.468a2.82 2.82 0 0 1 2.463 1.468h-4.925a2.814 2.814 0 0 1 2.462-1.468zm11.638 28.788H5.537V12.098h23.276v19.644zM31.07 9.39H3.28V7.13h27.79v2.26zM8.83 27.953a1.356 1.356 0 0 0 1.858-.476l3.808-6.438 4.462 3.786a1.354 1.354 0 0 0 2-.27l4.993-7.317a1.357 1.357 0 1 0-2.24-1.527l-4.145 6.073-4.54-3.853a1.357 1.357 0 0 0-2.045.343L8.35 26.1a1.354 1.354 0 0 0 .478 1.854z" fill="#FFF"/></svg>