<svg viewBox="0 0 31 38" xmlns="http://www.w3.org/2000/svg"><path d="M11.215 37.067l6.018-4.902-4.728-5.996a1.657 1.657 0 0 0-2.354-.266 1.722 1.722 0 0 0-.257 2.393l1.014 1.286a10.357 10.357 0 0 1-3.136-1.566c-2.263-1.655-3.756-4.106-4.205-6.903a10.67 10.67 0 0 1 1.828-7.905A10.48 10.48 0 0 1 9.485 9.77a1.715 1.715 0 0 0 .82-2.258 1.663 1.663 0 0 0-2.222-.834 13.847 13.847 0 0 0-5.41 4.542 14.066 14.066 0 0 0-2.597 8.153c0 .76.06 1.524.183 2.288.593 3.694 2.565 6.933 5.555 9.118a13.605 13.605 0 0 0 4.956 2.288L9.12 34.41a1.71 1.71 0 0 0-.627 1.33c0 .373.12.75.368 1.063a1.656 1.656 0 0 0 2.356.264zm9.562-24.625a1.72 1.72 0 0 0 .26-2.393L20.02 8.76c1.112.334 2.168.86 3.136 1.566 2.263 1.654 3.757 4.106 4.206 6.903.45 2.797-.2 5.605-1.828 7.906a10.48 10.48 0 0 1-4.092 3.436 1.714 1.714 0 0 0-.82 2.26 1.663 1.663 0 0 0 2.222.832 13.843 13.843 0 0 0 5.41-4.54c4.438-6.274 3.03-15.048-3.142-19.56a13.605 13.605 0 0 0-4.956-2.285l1.65-1.344a1.72 1.72 0 0 0 .26-2.393 1.656 1.656 0 0 0-2.355-.264L13.694 6.18l4.727 5.995c.58.734 1.633.852 2.355.264z" fill="#FFF"/></svg>