<svg viewBox="0 0 29 37" xmlns="http://www.w3.org/2000/svg"><path d="M27.317 33.333h-10.9c-.826 0-1.5.68-1.5 1.515a1.51 1.51 0 0 0 1.5 1.516h10.9c.826 0 1.5-.68 1.5-1.516a1.51 1.51 0 0 0-1.5-1.515M8.913 30.71l-.42-.01c-2.14-.056-4.105-1.297-5.13-3.238l-.21-.394.24-.374 9.88-15.407.41-.637.63.412 4.443 2.908.63.412-.41.636L9.14 30.355l-.226.356zm6.84-23.29l1.793-2.796.408-.636.63.412 4.44 2.905.628.412-.406.636-1.794 2.797-.407.635-.63-.41-4.44-2.905-.63-.412.408-.637zm-5.06 25.94a1.6 1.6 0 0 0 .404-.473l11.657-18.18L26.99 8.09c.22-.34.292-.744.208-1.14a1.503 1.503 0 0 0-.65-.954L18.33.62a1.493 1.493 0 0 0-2.078.452l-4.24 6.61L.265 25.997a.946.946 0 0 1-.05.112 1.553 1.553 0 0 0-.174.42c-.01.034-.012.066-.02.102-.025.17-.03.32-.01.46l.013.08-.004.06.783 7.77a1.506 1.506 0 0 0 1.494 1.36c.168 0 .332-.03.49-.084l7.265-2.543a1.53 1.53 0 0 0 .64-.378z" fill="#FFF"/></svg>