<?xml version="1.0" encoding="UTF-8" standalone="no"?>
<svg width="129px" height="38px" viewBox="0 0 129 38" version="1.1" xmlns="http://www.w3.org/2000/svg" xmlns:xlink="http://www.w3.org/1999/xlink" xmlns:sketch="http://www.bohemiancoding.com/sketch/ns">
    <!-- Generator: sketchtool 3.4.4 (395) - http://www.bohemiancoding.com/sketch -->
    <title>logo-casadocodigo</title>
    <desc>Created with sketchtool.</desc>
    <defs></defs>
    <g id="Page-1" stroke="none" stroke-width="1" fill="none" fill-rule="evenodd" sketch:type="MSPage">
        <g id="Desktop-HD" sketch:type="MSArtboardGroup" transform="translate(-684.000000, -3989.000000)">
            <g id="Footer" sketch:type="MSLayerGroup" transform="translate(0.000000, 3808.000000)">
                <g id="logo-casadocodigo" transform="translate(683.581325, 180.566960)" sketch:type="MSShapeGroup">
                    <path d="M7.35592169,7.25760612 L7.35592169,14.1264676 L7.35592169,24.4285941 L7.35592169,31.2974555 L14.2247831,31.2974555 L29.8124127,31.2974555 L29.8124127,24.5544856 L14.0623675,24.5544856 L14.0623675,14.0642989 L29.8124127,14.0642989 L29.8124127,7.25760612 L14.2247831,7.25760612 L7.35592169,7.25760612 Z" id="Shape" fill="#F5F7F8"></path>
                    <path d="M7.35592169,0.556600093 L0.749334337,7.25760612 L0.749334337,31.2974555 L7.35592169,37.9992386 L29.8124127,37.9992386 L29.8124127,31.5484615 L29.8124127,31.2974555 L14.2247831,31.2974555 L7.35592169,31.2974555 L7.35592169,24.4285941 L7.35592169,14.1264676 L7.35592169,7.25760612 L14.2247831,7.25760612 L29.8124127,7.25760612 L29.8124127,7.06954588 L29.8124127,0.556600093 L7.35592169,0.556600093 Z" id="Shape" fill="#9898A6"></path>
                    <path d="M80.6897018,17.9868434 C80.5179608,17.7059187 80.2910452,17.4821114 80.0097319,17.3150331 C79.7280301,17.1467892 79.3880452,17.0640271 78.9882229,17.0640271 C77.5202651,17.0535361 76.7851205,18.0909759 76.7851205,20.1755693 C76.7851205,20.5866596 76.8255301,20.9798765 76.9063494,21.3579398 C76.9875572,21.7371687 77.1134488,22.0658855 77.286744,22.3460331 C77.4596506,22.6281235 77.6865663,22.8550392 77.967491,23.0275572 C78.2488042,23.1996867 78.5887892,23.2863343 78.9882229,23.2863343 C80.4573464,23.2976024 81.1921024,22.2601627 81.1921024,20.1755693 C81.1921024,19.7535994 81.1516928,19.3549428 81.0708735,18.976491 C80.9892771,18.597262 80.8626084,18.2677681 80.6897018,17.9868434 L80.6897018,17.9868434 Z" id="Shape"></path>
                    <path d="M71.6923404,17.1118193 C70.9478705,17.1118193 70.364262,17.3577741 69.9422922,17.8485181 C69.5210994,18.3404277 69.3108916,19.1260843 69.3108916,20.2058765 C69.3108916,20.6496054 69.3458614,21.0595301 69.4161898,21.4383705 C69.4861295,21.8168223 69.6023072,22.1408765 69.7643343,22.409756 C69.9259729,22.6805783 70.1392892,22.8938946 70.4038946,23.0500934 C70.6685,23.2059036 70.9898343,23.2847801 71.3682861,23.2847801 C71.919256,23.2847801 72.3563795,23.1425693 72.6804337,22.8558163 C73.004488,22.5690633 73.2247982,22.1342711 73.3444729,21.5514398 L73.3444729,17.533012 C73.1509729,17.3818645 72.9287199,17.2734578 72.6804337,17.2089578 C72.4321476,17.1444578 72.1034307,17.1118193 71.6923404,17.1118193 L71.6923404,17.1118193 Z" id="Shape"></path>
                    <path d="M97.497003,16.9909789 C95.8277741,16.9909789 95.0984578,18.5459729 95.0984578,20.0205361 C95.0984578,21.7387229 96.0706205,23.0341627 97.4643645,23.0341627 C98.8258584,23.0341627 99.8465904,21.7538765 99.8465904,19.9878976 C99.8465904,18.6598193 99.1825512,16.9909789 97.497003,16.9909789 L97.497003,16.9909789 Z" id="Shape"></path>
                    <path d="M47.5755572,19.786238 C47.0890873,19.786238 46.5979548,19.8052771 46.100994,19.8429669 C45.6040331,19.8806566 45.2504488,20.0403524 45.0394639,20.3205 C44.829256,20.6018133 44.7239578,20.8772982 44.7239578,21.1469548 C44.7239578,21.5254066 44.8591747,21.8350843 45.1292199,22.0787078 C45.398488,22.3215542 45.7446898,22.4431717 46.1666596,22.4431717 C46.4685663,22.4431717 46.7759127,22.402762 47.0894759,22.3219428 C47.4030392,22.2411235 47.6458855,22.1377681 47.8187922,22.0138193 C47.9916988,21.890259 48.1350753,21.7519337 48.2481446,21.6011747 C48.361991,21.4500271 48.4455301,21.3035422 48.4991506,21.1632741 L48.4991506,19.8177108 C48.348003,19.8083855 48.1941355,19.7994488 48.0375482,19.794009 C47.8805723,19.7893464 47.7267048,19.786238 47.5755572,19.786238 L47.5755572,19.786238 Z" id="Shape"></path>
                    <path d="M61.1780633,19.786238 C60.6923705,19.786238 60.2004608,19.8052771 59.7042771,19.8429669 C59.2065392,19.8810452 58.8541205,20.0403524 58.6431355,20.3205 C58.4321506,20.6014247 58.3268524,20.8772982 58.3268524,21.1469548 C58.3268524,21.5254066 58.4620693,21.8350843 58.7328916,22.0787078 C59.0021596,22.3215542 59.3483614,22.4431717 59.7695542,22.4431717 C60.0714608,22.4431717 60.3795843,22.402762 60.6931476,22.3219428 C61.0070994,22.2411235 61.2499458,22.1377681 61.4224639,22.0138193 C61.5945934,21.890259 61.7379699,21.7519337 61.8514277,21.6011747 C61.9652741,21.4500271 62.0488133,21.3035422 62.1028223,21.1632741 L62.1028223,19.8177108 C61.9508976,19.8083855 61.7970301,19.7994488 61.6412199,19.794009 C61.4830783,19.7893464 61.329988,19.786238 61.1780633,19.786238 L61.1780633,19.786238 Z" id="Shape"></path>
                    <path d="M105.598747,17.0395482 C104.124184,17.0395482 103.24916,18.3357651 103.24916,20.0531747 C103.24916,21.6408072 104.042976,22.9537319 105.566108,22.9537319 C106.52234,22.9537319 107.396587,22.3048464 107.656142,21.252253 C107.704711,21.0579759 107.720642,20.8629217 107.720642,20.6367831 L107.720642,19.2752892 C107.720642,19.0969428 107.704711,18.8540964 107.656142,18.67575 C107.445934,17.7847952 106.668048,17.0395482 105.598747,17.0395482 L105.598747,17.0395482 Z" id="Shape"></path>
                    <path d="M125.342741,16.9909789 C123.673901,16.9909789 122.944584,18.5459729 122.944584,20.0205361 C122.944584,21.7387229 123.916747,23.0341627 125.310102,23.0341627 C126.671596,23.0341627 127.692328,21.7538765 127.692328,19.9878976 C127.69194,18.6598193 127.027123,16.9909789 125.342741,16.9909789 L125.342741,16.9909789 Z" id="Shape"></path>
                    <path d="M117.088684,17.0224518 C115.727967,17.0224518 114.755804,18.1733494 114.755804,19.9878976 C114.755804,21.527738 115.54962,22.807247 117.072753,22.807247 C117.963708,22.807247 118.757524,22.2562771 119.049717,21.3493916 C119.130148,21.1065452 119.162786,20.8310602 119.162786,20.5874367 L119.162786,19.1781506 C119.162786,18.9353042 119.146855,18.7243193 119.081578,18.5459729 C118.822413,17.7035873 118.142054,17.0224518 117.088684,17.0224518 L117.088684,17.0224518 Z" id="Shape"></path>
                    <path d="M41.701006,23.0753494 C41.3388735,23.172488 40.9153494,23.2210572 40.4296566,23.2210572 C39.8887892,23.2210572 39.3887199,23.1239187 38.9302259,22.9296416 C38.4709548,22.7345873 38.0719096,22.4431717 37.7311476,22.0546175 C37.3911627,21.6652861 37.1242259,21.1788163 36.9299488,20.5952078 C36.7348946,20.0131536 36.637756,19.3324066 36.637756,18.5545211 C36.637756,17.689988 36.7407229,16.9606717 36.9458795,16.3665723 C37.1506476,15.77325 37.4238012,15.2918313 37.7637861,14.9246476 C38.1045482,14.5574639 38.489994,14.2924699 38.9224548,14.1300542 C39.35375,13.9684157 39.7916506,13.8872078 40.2353795,13.8872078 C41.1962741,13.8872078 41.9368584,14.0103795 42.4544127,14.2598313 L43.1518675,13.1905301 C42.611,12.996253 42.1365753,12.8633675 41.7258735,12.7938163 C41.3147831,12.7230994 40.7863494,12.6885181 40.1374639,12.6885181 C39.5320964,12.6885181 38.9383855,12.795759 38.3555542,13.0125723 C37.7715572,13.228997 37.2454548,13.5713133 36.7756928,14.0410753 C36.3051536,14.5108373 35.9270904,15.1169819 35.6411145,15.8556235 C35.3551386,16.5962078 35.211762,17.4960994 35.211762,18.5541325 C35.211762,19.5686476 35.3415392,20.4467801 35.6010934,21.1865873 C35.8598705,21.926006 36.2111235,22.5344819 36.6544639,23.0089066 C37.0974157,23.4852741 37.6165241,23.8388584 38.2094578,24.0704367 C38.8035572,24.3020151 39.4415633,24.4185813 40.1223102,24.4185813 C40.6833825,24.4185813 41.2129819,24.370012 41.7107199,24.2728735 C42.2065151,24.1757349 42.7415542,23.9060783 43.3150602,23.4623494 L42.6176054,22.7011717 C42.3681536,22.854262 42.0631386,22.9782108 41.701006,23.0753494 L41.701006,23.0753494 Z" id="Shape" fill="#9898A6"></path>
                    <path d="M92.1411717,22.7742199 C91.7786506,22.8713584 91.3559036,22.9207048 90.8694337,22.9207048 C90.3281777,22.9207048 89.8288855,22.8235663 89.3711687,22.6292892 C88.9107319,22.4342349 88.5120753,22.1428193 88.1720904,21.753488 C87.8313283,21.3649337 87.5643916,20.8784639 87.3701145,20.2948554 C87.1758373,19.7120241 87.0786988,19.0312771 87.0786988,18.2533916 C87.0786988,17.389247 87.1805,16.6599307 87.3860452,16.0658313 C87.5908133,15.4721205 87.8639669,14.9910904 88.2039518,14.6231295 C88.5439367,14.2571114 88.9297711,13.9909518 89.3622319,13.8293133 C89.7939157,13.6668976 90.2310392,13.5864669 90.6751566,13.5864669 C91.6364398,13.5864669 92.3758584,13.7100271 92.8949669,13.9590904 L93.5916446,12.889012 C93.0511657,12.6947349 92.5759639,12.5626265 92.1656506,12.4926867 C91.7549488,12.4215813 91.2261265,12.3873886 90.5780181,12.3873886 C89.972262,12.3873886 89.3789398,12.4950181 88.7953313,12.7114428 C88.2117229,12.928256 87.6856205,13.2701837 87.2146928,13.7403343 C86.7457078,14.2100964 86.3668675,14.8150753 86.0808916,15.5548825 C85.7953042,16.2946898 85.6519277,17.1949699 85.6519277,18.2522259 C85.6519277,19.2675181 85.7817048,20.1456506 86.041259,20.8854578 C86.3008133,21.6252651 86.6512892,22.2333524 87.0938524,22.7081657 C87.5371928,23.1841446 88.0555241,23.5377289 88.6496235,23.7693072 C89.2437229,24.0008855 89.8813404,24.1174518 90.5620873,24.1174518 C91.1235482,24.1174518 91.6539247,24.0688825 92.150497,23.9709669 C92.6466807,23.8738283 93.1817199,23.6037831 93.7548373,23.1612199 L93.0573825,22.4000422 C92.8083193,22.5531325 92.5033042,22.6770813 92.1411717,22.7742199 L92.1411717,22.7742199 Z" id="Shape" fill="#9898A6"></path>
                    <path d="M49.9336928,23.2937169 C49.7879849,22.9210934 49.7145482,22.5348705 49.7145482,22.1350482 C49.7145482,21.5840783 49.731256,21.001247 49.7631175,20.385 C49.7965331,19.7695301 49.8116867,19.1373524 49.8116867,18.489244 C49.8116867,18.1978283 49.7821566,17.9064127 49.7227078,17.6142199 C49.6636476,17.3228042 49.5443614,17.0554789 49.3660151,16.8126325 C49.1884458,16.5697861 48.9288916,16.372012 48.5889066,16.2216416 C48.2481446,16.070494 47.7974217,15.9947259 47.2359608,15.9947259 C46.6418614,15.9947259 46.0718524,16.0537861 45.5263223,16.1722952 C44.9811807,16.2915813 44.5024819,16.4749789 44.0925572,16.7232651 L44.4978193,17.6962048 C44.6489669,17.6095572 44.8242048,17.5314578 45.0239217,17.4615181 C45.2236386,17.3915783 45.435012,17.331741 45.6560994,17.2831717 C45.8775753,17.2346024 46.0932229,17.1961355 46.3045964,17.1701024 C46.5144157,17.1429036 46.7121898,17.1296928 46.8955873,17.1296928 C47.5223253,17.1296928 47.9543976,17.2482018 48.1918042,17.4856084 C48.4292108,17.7237922 48.548497,18.1391566 48.548497,18.733256 C48.548497,18.9928102 48.5325663,19.2842259 48.4999277,19.6082801 C48.3487801,19.5869096 48.2003524,19.5764187 48.0546446,19.5764187 L47.6085843,19.5764187 C46.8633373,19.5764187 46.1561687,19.6168283 45.4866898,19.6976476 C44.8164337,19.7788554 44.2973253,20.0726024 43.9309187,20.5800542 C43.5637349,21.0890602 43.3799488,21.5801928 43.3799488,22.0553946 C43.3799488,22.4113102 43.4413404,22.7299247 43.5660663,23.0108494 C43.6907922,23.2921627 43.8609789,23.5326777 44.0766265,23.7323946 C44.2922741,23.9328886 44.549497,24.0859789 44.8455753,24.193997 C45.1435964,24.3016265 45.4645422,24.3564127 45.8099669,24.3564127 C46.1553916,24.3564127 46.5012048,24.3175572 46.8466295,24.2425663 C47.1928313,24.1679639 47.4675392,24.0723795 47.6730843,23.9593102 C47.8778524,23.8454639 48.0538675,23.7156867 48.1995753,23.5699789 C48.3452831,23.4242711 48.4669006,23.2762319 48.5640392,23.1246958 L48.6444699,23.1246958 C48.8713855,23.8804337 49.1523102,24.258497 49.4868554,24.258497 L50.6373645,24.258497 C50.3144759,23.9884518 50.0794006,23.6663404 49.9336928,23.2937169 L49.9336928,23.2937169 L49.9336928,23.2937169 Z M48.4991506,21.9407711 C48.4451416,22.0810392 48.3616024,22.2275241 48.2481446,22.3786717 C48.1350753,22.5302078 47.9916988,22.667756 47.8187922,22.7913163 C47.6458855,22.9152651 47.4030392,23.0182319 47.0894759,23.0994398 C46.7759127,23.1806476 46.4685663,23.2206687 46.1666596,23.2206687 C45.7446898,23.2206687 45.398488,23.0994398 45.1292199,22.8562048 C44.8591747,22.6125813 44.7239578,22.3021265 44.7239578,21.9244518 C44.7239578,21.6547952 44.829256,21.3793102 45.0394639,21.097997 C45.2504488,20.8170723 45.6040331,20.6577651 46.100994,20.6204639 C46.5979548,20.5823855 47.0890873,20.5637349 47.5755572,20.5637349 C47.7267048,20.5637349 47.8805723,20.5668434 48.0375482,20.5718946 C48.1933584,20.5773343 48.348003,20.585494 48.4991506,20.5955964 L48.4991506,21.9407711 L48.4991506,21.9407711 L48.4991506,21.9407711 Z" id="Shape" fill="#9898A6"></path>
                    <path d="M55.3944337,20.0609458 C55.1076807,19.8666687 54.7948946,19.7108584 54.4541325,19.5911837 C54.1141476,19.4726747 53.8005843,19.3506687 53.5146084,19.2267199 C53.2286325,19.1023825 52.9881175,18.9613373 52.7938404,18.8055271 C52.5995633,18.6493283 52.5016476,18.4294066 52.5016476,18.149259 C52.5016476,17.7494367 52.6131627,17.468512 52.8338614,17.3060964 C53.0553373,17.1444578 53.4038705,17.06325 53.8782952,17.06325 C54.2781175,17.06325 54.6538494,17.109488 55.0043253,17.2011867 C55.3555783,17.292497 55.6555422,17.3985723 55.9038283,17.5166928 L56.2111747,16.4473916 C55.919759,16.3071235 55.5766657,16.1847289 55.1830602,16.0825392 C54.7882892,15.9799608 54.2998765,15.9286717 53.7162681,15.9286717 C52.9282801,15.9286717 52.3120331,16.1101265 51.8690813,16.4714819 C51.425741,16.834003 51.2042651,17.4024578 51.2042651,18.1803434 C51.2042651,18.6563223 51.3014036,19.033997 51.4964578,19.3149217 C51.6907349,19.5958464 51.9304729,19.8247048 52.2172259,20.0038283 C52.5028133,20.1821747 52.8167651,20.3278825 53.15675,20.4409518 C53.497512,20.5547982 53.8110753,20.6733072 54.0970512,20.7968675 C54.3830271,20.9215934 54.6231536,21.0754608 54.8174307,21.2584699 C55.0117078,21.442256 55.1088464,21.6963705 55.1088464,22.0204247 C55.1088464,22.4967922 54.9576988,22.8247319 54.6550151,23.0085181 C54.353497,23.1926928 53.9688283,23.284003 53.504506,23.284003 C53.0938042,23.284003 52.6893193,23.2253313 52.289497,23.1056566 C51.8900633,22.9871476 51.566009,22.8573705 51.3173343,22.7171024 L50.928003,23.8190422 C51.2201958,23.9814578 51.5819398,24.1217259 52.014012,24.2402349 C52.4456958,24.3599096 52.970244,24.4185813 53.5857139,24.4185813 C54.0613042,24.4185813 54.4743373,24.3568012 54.8255904,24.2324639 C55.1760663,24.1089036 55.4705904,23.9387169 55.707997,23.7226807 C55.9454036,23.5066446 56.1214187,23.2474789 56.234488,22.9447952 C56.3483343,22.6425 56.4046747,22.3184458 56.4046747,21.9726325 C56.4046747,21.4861627 56.3075361,21.0945 56.113259,20.7976446 C55.9213133,20.5011777 55.6807982,20.2552229 55.3944337,20.0609458 L55.3944337,20.0609458 Z" id="Shape" fill="#9898A6"></path>
                    <path d="M63.5358102,23.2937169 C63.3908795,22.9210934 63.3174428,22.5348705 63.3174428,22.1350482 C63.3174428,21.5840783 63.3333735,21.001247 63.366012,20.385 C63.3986506,19.7695301 63.4145813,19.1373524 63.4145813,18.489244 C63.4145813,18.1978283 63.3854398,17.9064127 63.3256024,17.6142199 C63.2657651,17.3228042 63.147256,17.0554789 62.9689096,16.8126325 C62.7905633,16.5697861 62.5317861,16.372012 62.1910241,16.2216416 C61.850262,16.0712711 61.3995392,15.9947259 60.8380783,15.9947259 C60.2443675,15.9947259 59.6739699,16.0537861 59.1296054,16.1722952 C58.5840753,16.2915813 58.1053765,16.4749789 57.6954518,16.7232651 L58.0999367,17.6962048 C58.2518614,17.6095572 58.4270994,17.5314578 58.6272048,17.4615181 C58.8261446,17.3911898 59.0379066,17.331741 59.2586054,17.2831717 C59.4796928,17.2346024 59.696506,17.1961355 59.9067139,17.1701024 C60.1176988,17.1429036 60.3150843,17.1296928 60.4980934,17.1296928 C61.1240542,17.1296928 61.5572922,17.2482018 61.7943102,17.4856084 C62.0317169,17.7237922 62.151003,18.1391566 62.151003,18.733256 C62.151003,18.9928102 62.1342952,19.2842259 62.1024337,19.6082801 C61.950509,19.5869096 61.8028584,19.5764187 61.6571506,19.5764187 L61.2110904,19.5764187 C60.4658434,19.5764187 59.7582861,19.6168283 59.0884187,19.6976476 C58.4181627,19.7788554 57.8998313,20.0726024 57.5326476,20.5800542 C57.1654639,21.0890602 56.9816777,21.5801928 56.9816777,22.0553946 C56.9816777,22.4113102 57.0438464,22.7299247 57.1681837,23.0108494 C57.2913554,23.2921627 57.4627078,23.5326777 57.6779669,23.7323946 C57.8943916,23.9328886 58.1508373,24.0859789 58.4480813,24.193997 C58.7449367,24.3016265 59.0658825,24.3564127 59.4113072,24.3564127 C59.7567319,24.3564127 60.1025452,24.3175572 60.448747,24.2425663 C60.7945602,24.1679639 61.0700452,24.0723795 61.2752018,23.9593102 C61.4799699,23.8454639 61.6559849,23.7156867 61.8016928,23.5699789 C61.9466235,23.4242711 62.0690181,23.2762319 62.1661566,23.1246958 L62.2473645,23.1246958 C62.4742801,23.8804337 62.7555934,24.258497 63.08975,24.258497 L64.240259,24.258497 C63.9169819,23.9884518 63.6822952,23.6663404 63.5358102,23.2937169 L63.5358102,23.2937169 L63.5358102,23.2937169 Z M62.1024337,21.9407711 C62.0476476,22.0810392 61.9648855,22.2275241 61.8510392,22.3786717 C61.7379699,22.5302078 61.5945934,22.667756 61.4220753,22.7913163 C61.2495572,22.9152651 61.0067108,23.0182319 60.692759,23.0994398 C60.3791958,23.1806476 60.0710723,23.2206687 59.7691657,23.2206687 C59.3479729,23.2206687 59.0017711,23.0994398 58.732503,22.8562048 C58.4616807,22.6125813 58.3264639,22.3021265 58.3264639,21.9244518 C58.3264639,21.6547952 58.431762,21.3793102 58.642747,21.097997 C58.8537319,20.8170723 59.2061506,20.6577651 59.7038886,20.6204639 C60.2000723,20.581997 60.6919819,20.5637349 61.1776747,20.5637349 C61.329988,20.5637349 61.4826898,20.5668434 61.6396657,20.5718946 C61.7954759,20.5773343 61.9501205,20.585494 62.1012681,20.5955964 L62.1012681,21.9411596 L62.1024337,21.9411596 L62.1024337,21.9407711 L62.1024337,21.9407711 Z" id="Shape" fill="#9898A6"></path>
                    <path d="M74.6410783,21.4391476 L74.6410783,12.8824066 L73.3448614,12.8824066 L73.3448614,16.2527259 C73.0748163,16.1563645 72.8234217,16.0856476 72.5918434,16.0425181 C72.3587108,15.9993886 72.0432048,15.977241 71.6437711,15.977241 C70.4994789,15.977241 69.5995873,16.3370422 68.9460392,17.0543133 C68.2917139,17.7735271 67.966494,18.8245663 67.966494,20.2058765 C67.966494,21.6544066 68.2283795,22.7178795 68.751762,23.3986265 C69.2763102,24.0793735 70.077509,24.4193584 71.1580783,24.4193584 C71.7090482,24.4193584 72.1889127,24.2954096 72.600003,24.0467349 C73.0107048,23.7984488 73.323491,23.4856627 73.5395271,23.1064337 L73.6048042,23.1064337 L73.9288584,24.2569428 L74.8038825,24.2569428 C74.7168464,23.8264247 74.6675,23.3854157 74.6581747,22.9370241 C74.6465181,22.4894096 74.6410783,21.9893404 74.6410783,21.4391476 L74.6410783,21.4391476 L74.6410783,21.4391476 Z M73.34525,21.5522169 C73.2255753,22.1350482 73.0052651,22.5698404 72.6812108,22.8565934 C72.3571566,23.1425693 71.9200331,23.2855572 71.3690633,23.2855572 C70.9898343,23.2855572 70.6688886,23.2078464 70.4046717,23.0508705 C70.1404548,22.8938946 69.9271386,22.6813554 69.7651114,22.4105331 C69.6026958,22.1416536 69.4861295,21.8175994 69.4169669,21.4391476 C69.34625,21.0603072 69.3116687,20.6503825 69.3116687,20.2066536 C69.3116687,19.1268614 69.5218765,18.3404277 69.9430693,17.8492952 C70.3650392,17.3577741 70.9486476,17.1125964 71.6931175,17.1125964 C72.1045964,17.1125964 72.4333133,17.1452349 72.681988,17.2097349 C72.9302741,17.2742349 73.1525271,17.3826416 73.3460271,17.5337892 L73.3460271,21.5526054 L73.34525,21.5526054 L73.34525,21.5522169 L73.34525,21.5522169 Z" id="Shape" fill="#9898A6"></path>
                    <path d="M81.6777952,17.0881175 C81.3863795,16.715494 81.0164759,16.4295181 80.5688614,16.2286355 C80.1204699,16.0289187 79.5935904,15.9290602 78.989,15.9290602 C77.8450964,15.9290602 76.9665753,16.2935241 76.3561566,17.0232289 C75.7461265,17.7525452 75.4411114,18.8024187 75.4411114,20.1744036 C75.4411114,20.8124096 75.5114398,21.391744 75.6513193,21.9159036 C75.7915873,22.4400633 76.008012,22.8880663 76.3002048,23.2606898 C76.5923976,23.6340904 76.9619127,23.9192892 77.4095271,24.1197831 C77.8575301,24.3195 78.3847982,24.4193584 78.989,24.4193584 C80.1340693,24.4193584 81.0114247,24.0548946 81.6214548,23.3263554 C82.232262,22.5970392 82.5380542,21.5467771 82.5380542,20.1747922 C82.5380542,19.5371747 82.4669488,18.9566747 82.3270693,18.4329036 C82.185247,17.908744 81.969988,17.460741 81.6777952,17.0881175 L81.6777952,17.0881175 L81.6777952,17.0881175 Z M78.9882229,23.2855572 C78.5887892,23.2855572 78.2488042,23.1989096 77.967491,23.0267801 C77.6865663,22.854262 77.4596506,22.6273464 77.286744,22.345256 C77.1142259,22.0651084 76.9875572,21.7363916 76.9063494,21.3571627 C76.8251416,20.9790994 76.7851205,20.5858825 76.7851205,20.1747922 C76.7851205,18.0901988 77.5202651,17.052759 78.9882229,17.06325 C79.3880452,17.06325 79.7280301,17.1467892 80.0097319,17.314256 C80.2910452,17.4821114 80.5179608,17.7059187 80.6897018,17.9860663 C80.8626084,18.266991 80.9892771,18.5960964 81.0704849,18.9749367 C81.1509157,19.353 81.1917139,19.7520452 81.1917139,20.1740151 C81.1921024,22.2593855 80.4573464,23.2968253 78.9882229,23.2855572 L78.9882229,23.2855572 L78.9882229,23.2855572 Z" id="Shape" fill="#9898A6"></path>
                    <path d="M99.6029669,12.6966777 L98.0312651,12.6966777 L96.6223675,15.0136265 L97.6267801,15.0136265 L99.6029669,12.6966777 Z" id="Shape" fill="#9898A6"></path>
                    <path d="M97.5296416,15.9212892 C95.3739428,15.9212892 93.6406024,17.460741 93.6406024,20.0691054 C93.6406024,22.5484699 95.2927349,24.1034639 97.3998645,24.1034639 C99.2789127,24.1034639 101.304446,22.8398855 101.304446,19.9393283 C101.304446,17.5578795 99.7813133,15.9212892 97.5296416,15.9212892 L97.5296416,15.9212892 L97.5296416,15.9212892 Z M97.4643645,23.0333855 C96.0706205,23.0333855 95.0984578,21.7379458 95.0984578,20.019759 C95.0984578,18.5451958 95.8277741,16.9898133 97.497003,16.9898133 C99.1825512,16.9898133 99.8465904,18.6590422 99.8465904,19.9871205 C99.8465904,21.7538765 98.8258584,23.0333855 97.4643645,23.0333855 L97.4643645,23.0333855 L97.4643645,23.0333855 Z" id="Shape" fill="#9898A6"></path>
                    <path d="M109.130705,12.4211928 L107.720642,12.4211928 L107.720642,17.1040482 L107.68878,17.1040482 C107.332087,16.4881898 106.538271,15.9212892 105.323262,15.9212892 C103.427506,15.9212892 101.790527,17.5093102 101.807235,20.1176747 C101.807235,22.4999006 103.281798,24.1034639 105.176777,24.1034639 C106.457063,24.1034639 107.396587,23.4394247 107.81778,22.5644006 L107.867127,22.5644006 L107.931627,23.9258946 L109.195205,23.9258946 C109.163343,23.3908554 109.130705,22.5970392 109.130705,21.9003614 L109.130705,12.4211928 L109.130705,12.4211928 L109.130705,12.4211928 Z M107.720642,20.6367831 C107.720642,20.8629217 107.704711,21.0579759 107.656142,21.252253 C107.396587,22.3048464 106.52234,22.9537319 105.566108,22.9537319 C104.042976,22.9537319 103.24916,21.6408072 103.24916,20.0531747 C103.24916,18.3357651 104.124184,17.0395482 105.598747,17.0395482 C106.668048,17.0395482 107.445934,17.7847952 107.656142,18.67575 C107.704711,18.8540964 107.720642,19.0969428 107.720642,19.2752892 L107.720642,20.6367831 L107.720642,20.6367831 L107.720642,20.6367831 Z" id="Shape" fill="#9898A6"></path>
                    <path d="M119.340744,17.2664639 L119.308105,17.2664639 C118.95219,16.6171898 118.222873,15.9212892 116.86138,15.9212892 C115.046831,15.9212892 113.313102,17.4121717 113.313102,20.0691054 C113.313102,22.2403464 114.706846,23.893256 116.651172,23.893256 C117.866181,23.893256 118.725274,23.3096476 119.146467,22.5803313 L119.178328,22.5803313 L119.178328,23.4394247 C119.178328,25.4319307 118.109027,26.1931084 116.651172,26.1931084 C115.679009,26.1931084 114.868485,25.9016928 114.350154,25.5617078 L113.993072,26.6636476 C114.625639,27.0848404 115.662301,27.311756 116.602602,27.311756 C117.590696,27.311756 118.692636,27.0681325 119.470521,26.3722319 C120.215768,25.6747771 120.588392,24.5895452 120.588392,22.7753855 L120.588392,18.2219187 C120.588392,17.2823946 120.604322,16.6338976 120.652892,16.0829277 L119.389313,16.0829277 L119.340744,17.2664639 L119.340744,17.2664639 L119.340744,17.2664639 Z M119.162398,20.5874367 C119.162398,20.8310602 119.129759,21.1065452 119.049328,21.3493916 C118.757136,22.2562771 117.963319,22.807247 117.072364,22.807247 C115.549232,22.807247 114.755416,21.527738 114.755416,19.9878976 C114.755416,18.1733494 115.727578,17.0224518 117.088295,17.0224518 C118.141666,17.0224518 118.822413,17.7035873 119.08119,18.5459729 C119.146467,18.7243193 119.162398,18.9353042 119.162398,19.1781506 L119.162398,20.5874367 L119.162398,20.5874367 L119.162398,20.5874367 Z" id="Shape" fill="#9898A6"></path>
                    <path d="M125.37538,15.9212892 C123.220069,15.9212892 121.486729,17.460741 121.486729,20.0691054 C121.486729,22.5484699 123.138861,24.1034639 125.245602,24.1034639 C127.124651,24.1034639 129.150184,22.8398855 129.150184,19.9393283 C129.149795,17.5578795 127.626663,15.9212892 125.37538,15.9212892 L125.37538,15.9212892 L125.37538,15.9212892 Z M125.310102,23.0333855 C123.916747,23.0333855 122.944584,21.7379458 122.944584,20.019759 C122.944584,18.5451958 123.673901,16.9898133 125.342741,16.9898133 C127.027512,16.9898133 127.692328,18.6590422 127.692328,19.9871205 C127.69194,21.7538765 126.671208,23.0333855 125.310102,23.0333855 L125.310102,23.0333855 L125.310102,23.0333855 Z" id="Shape" fill="#9898A6"></path>
                    <path d="M111.259593,12.9880934 C110.725331,12.9880934 110.368639,13.3933554 110.368639,13.8790482 C110.368639,14.3655181 110.708623,14.7540723 111.226955,14.7540723 C111.794633,14.7540723 112.134617,14.3655181 112.134617,13.8790482 C112.134617,13.3774247 111.777925,12.9880934 111.259593,12.9880934 L111.259593,12.9880934 Z" id="Shape" fill="#9898A6"></path>
                    <rect id="Rectangle-path" fill="#9898A6" x="110.546208" y="16.0829277" width="1.42599398" height="7.84296687"></rect>
                </g>
            </g>
        </g>
    </g>
</svg>