<?xml version="1.0" encoding="UTF-8" standalone="no"?>
<svg width="69px" height="31px" viewBox="0 0 69 31" version="1.1" xmlns="http://www.w3.org/2000/svg" xmlns:xlink="http://www.w3.org/1999/xlink" xmlns:sketch="http://www.bohemiancoding.com/sketch/ns">
    <!-- Generator: sketchtool 3.4.4 (395) - http://www.bohemiancoding.com/sketch -->
    <title>CDC Logo</title>
    <desc>Created with sketchtool.</desc>
    <defs>
        <path id="path-1" d="M0,0.0189673673 L68.9116269,0.0189673673 L68.9116269,30.1875 L0,30.1875 L0,0.0189673673 Z"></path>
    </defs>
    <g id="Page-1" stroke="none" stroke-width="1" fill="none" fill-rule="evenodd" sketch:type="MSPage">
        <g id="Desktop-HD" sketch:type="MSArtboardGroup" transform="translate(-1101.000000, -4850.000000)">
            <g id="Group" sketch:type="MSLayerGroup" transform="translate(0.000000, 4840.000000)">
                <g id="CDC-Logo" transform="translate(1101.000000, 10.000000)">
                    <path d="M36.3877604,14.2401383 C35.9206835,14.6039912 35.4843912,14.8251881 35.0794142,14.9053319 C34.6739065,14.9849414 34.2421258,15.0250133 33.7838065,15.0250133 C33.2288873,15.0250133 32.7089988,14.9296422 32.2244065,14.7391671 C31.7395488,14.5481577 31.3167912,14.2580371 30.9553373,13.8674696 C30.5941488,13.4774364 30.3080642,12.9781405 30.0965527,12.3709176 C29.8850412,11.7634276 29.7794181,11.0424005 29.7794181,10.2086378 C29.7794181,9.33961178 29.8959219,8.60122019 30.1294604,7.99319585 C30.3629988,7.38597295 30.6713758,6.88908136 31.0545912,6.50332251 C31.4380719,6.11756366 31.8677296,5.83599176 32.3435642,5.65833966 C32.8193988,5.4809547 33.3037258,5.39226222 33.7970758,5.39226222 C34.3257219,5.39226222 34.7575027,5.42138114 35.0924181,5.47881753 C35.4273335,5.53678822 35.8150604,5.6452495 36.2555988,5.80500282 L35.687145,6.68311178 C35.2646527,6.47901222 34.6606373,6.37696244 33.8766912,6.37696244 C33.5152373,6.37696244 33.158295,6.4434818 32.8058642,6.57652052 C32.4534335,6.70955924 32.1384219,6.92728324 31.8608296,7.2283568 C31.5832373,7.5302318 31.360845,7.92480647 31.1933873,8.4126151 C31.0259296,8.90069087 30.9423335,9.4993651 30.9423335,10.2086378 C30.9423335,10.8473839 31.0216835,11.4062534 31.1803835,11.8852462 C31.3390835,12.364239 31.5569642,12.7633551 31.8345565,13.0825946 C32.1121488,13.4018341 32.4377758,13.6414641 32.8124988,13.8009503 C33.1866912,13.9607036 33.5945873,14.0405803 34.0353912,14.0405803 C34.4316104,14.0405803 34.7774065,14.0007755 35.0727796,13.9206317 C35.3676219,13.8410222 35.6165527,13.7389724 35.8193065,13.6147495 L36.3877604,14.2401383 Z" id="Fill-1" fill="#373435" sketch:type="MSShapeGroup"></path>
                    <path d="M36.3877604,25.0775577 C35.9206835,25.4411434 35.4843912,25.6626075 35.0791488,25.7427513 C34.6736412,25.8223608 34.2421258,25.8624327 33.7838065,25.8624327 C33.2288873,25.8624327 32.7089988,25.7670616 32.2244065,25.5765864 C31.7395488,25.385577 31.3167912,25.0954565 30.9553373,24.704889 C30.5941488,24.3148558 30.3077988,23.8155599 30.0965527,23.2080699 C29.8850412,22.600847 29.7791527,21.8795527 29.7791527,21.0460571 C29.7791527,20.1770311 29.8959219,19.4386395 30.129195,18.8306152 C30.3627335,18.2233923 30.6713758,17.7262336 31.0543258,17.3407419 C31.4380719,16.954983 31.8674642,16.6734111 32.3432988,16.495759 C32.8191335,16.3183741 33.3034604,16.2296816 33.7970758,16.2296816 C34.3257219,16.2296816 34.7575027,16.2585334 35.0924181,16.3162369 C35.4273335,16.3739404 35.8150604,16.4824017 36.2555988,16.642155 L35.6868796,17.520264 C35.2643873,17.3161644 34.6606373,17.2141147 33.8764258,17.2141147 C33.5149719,17.2141147 33.158295,17.280634 32.8058642,17.4139399 C32.4534335,17.5469786 32.1381565,17.7644355 31.8608296,18.0657762 C31.5832373,18.3676512 31.360845,18.7619587 31.1933873,19.2500345 C31.0259296,19.7378431 30.9420681,20.3367845 30.9420681,21.0460571 C30.9420681,21.6848033 31.0214181,22.2434056 31.1803835,22.7223984 C31.3388181,23.2013912 31.5566988,23.6007745 31.8345565,23.920014 C32.1118835,24.2392535 32.4377758,24.4788835 32.8124988,24.6383696 C33.1866912,24.798123 33.5943219,24.8779996 34.0351258,24.8779996 C34.4316104,24.8779996 34.7774065,24.8381949 35.0725142,24.7580511 C35.3676219,24.6784415 35.6165527,24.5763918 35.8190412,24.4521689 L36.3877604,25.0775577 Z" id="Fill-3" fill="#373435" sketch:type="MSShapeGroup"></path>
                    <path d="M38.71452,14.0405535 C38.9613277,14.0405535 39.2121162,14.0071603 39.4679469,13.9409081 C39.7232469,13.8741216 39.9217546,13.7902377 40.0626738,13.6879208 C40.2035931,13.5861382 40.3203623,13.4728683 40.4129815,13.3486454 C40.5053354,13.2244225 40.5738046,13.104741 40.6178585,12.989334 L40.6178585,11.8852195 C40.4944546,11.8761365 40.3686623,11.869725 40.2410123,11.8651835 C40.1133623,11.8609092 39.98757,11.8585049 39.8644315,11.8585049 C39.4679469,11.8585049 39.0669508,11.8742665 38.6617085,11.9049883 C38.2562008,11.9362444 37.9679931,12.0671459 37.7960238,12.2976929 C37.62432,12.5282399 37.5383354,12.7547798 37.5383354,12.9762438 C37.5383354,13.2869346 37.6482046,13.5417919 37.8684738,13.7410829 C38.0890085,13.9409081 38.3708469,14.0405535 38.71452,14.0405535 L38.71452,14.0405535 Z M37.0226931,8.70538042 C37.3576085,8.50154801 37.7471931,8.35061051 38.1925085,8.25283507 C38.6372931,8.15559392 39.1022469,8.10643905 39.5868392,8.10643905 C40.0451585,8.10643905 40.4129815,8.16895122 40.6903085,8.29263982 C40.9681662,8.41712987 41.1796777,8.57902035 41.3248431,8.77857843 C41.4705392,8.9781365 41.5671392,9.19746338 41.6157046,9.43709336 C41.6640046,9.67645619 41.68842,9.91608617 41.68842,10.155449 C41.68842,10.6876039 41.6751508,11.2069357 41.6488777,11.712376 C41.6223392,12.2175491 41.60907,12.6968091 41.60907,13.1493544 C41.60907,13.4774097 41.6685162,13.7942449 41.7876738,14.1006614 C41.9063008,14.4062764 42.0981738,14.6702167 42.3624969,14.892215 L41.4240969,14.892215 C41.1507508,14.892215 40.9217238,14.5815242 40.7367508,13.9606769 L40.67067,13.9606769 C40.59132,14.0848998 40.4923315,14.2069855 40.3731738,14.3263998 C40.2545469,14.4466155 40.1109738,14.5526725 39.9437815,14.6459064 C39.7760585,14.7391404 39.5515431,14.8168799 39.2697046,14.8788577 C38.9876008,14.9405685 38.7057623,14.9718246 38.4236585,14.9718246 C38.14182,14.9718246 37.87962,14.9274783 37.6373238,14.8387858 C37.3947623,14.7500934 37.1856392,14.6240004 37.0096892,14.4594385 C36.8332085,14.295678 36.6946777,14.0982571 36.5933008,13.8677101 C36.4919238,13.6371631 36.4412354,13.37536 36.4412354,13.0825679 C36.4412354,12.6922676 36.5909123,12.2888771 36.8905315,11.8718622 C37.1901508,11.4551144 37.6131738,11.2133472 38.1593354,11.1468279 C38.7057623,11.0803085 39.2829738,11.0471824 39.89097,11.0471824 L40.2545469,11.0471824 C40.3731738,11.0471824 40.4944546,11.0559982 40.6178585,11.073897 C40.6441315,10.8075524 40.6574008,10.5679225 40.6574008,10.3550071 C40.6574008,9.8674656 40.56027,9.52578584 40.3668046,9.3305021 C40.1725431,9.13548551 39.8201123,9.03771007 39.3092469,9.03771007 C39.1593046,9.03771007 38.9987469,9.04919735 38.8270431,9.07110332 C38.6548085,9.09327644 38.4785931,9.12453252 38.2983969,9.16433728 C38.1174046,9.20414204 37.9459662,9.25302976 37.7824892,9.3107333 C37.6195431,9.36843684 37.4765008,9.43281903 37.3533623,9.50387987 L37.0226931,8.70538042 Z" id="Fill-5" fill="#373435" sketch:type="MSShapeGroup"></path>
                    <path d="M46.0105269,13.0559869 C46.0105269,12.7899095 45.9311769,12.5818027 45.7727423,12.4305981 C45.6140423,12.2799277 45.4181885,12.1535676 45.18465,12.0512507 C44.9511115,11.9497352 44.6955462,11.8516926 44.4179538,11.758993 C44.1403615,11.6654919 43.8847962,11.5460776 43.6512577,11.3994144 C43.4177192,11.2532856 43.2218654,11.0649476 43.0634308,10.8341335 C42.9047308,10.6035864 42.8253808,10.2931628 42.8253808,9.90286244 C42.8253808,9.26438346 43.0058423,8.79634364 43.3672962,8.49901012 C43.7282192,8.20194375 44.2305923,8.05314342 44.8738846,8.05314342 C45.3497192,8.05314342 45.7483269,8.09561963 46.0702385,8.17977063 C46.3916192,8.26418877 46.6713346,8.36383424 46.9093846,8.47897417 L46.6583308,9.35708313 C46.4553115,9.25957483 46.2111577,9.17301952 45.9248077,9.09795149 C45.6384577,9.02261632 45.3319385,8.98468158 45.0060462,8.98468158 C44.6183192,8.98468158 44.3343577,9.05120094 44.1536308,9.1845068 C43.9729038,9.31754552 43.8826731,9.54809253 43.8826731,9.87641499 C43.8826731,10.106962 43.9620231,10.2864841 44.1207231,10.4149814 C44.2794231,10.5437457 44.4752769,10.6588857 44.7088154,10.7606683 C44.9423538,10.8629852 45.1976538,10.9626307 45.4752462,11.060139 C45.7528385,11.1579144 46.0084038,11.2864117 46.2419423,11.4464321 C46.4752154,11.6059183 46.6713346,11.8073464 46.8300346,12.0512507 C46.9887346,12.295155 47.0678192,12.6165317 47.0678192,13.0164493 C47.0678192,13.3001584 47.0219077,13.5662358 46.9290231,13.8146816 C46.8366692,14.0631274 46.6933615,14.2755085 46.4996308,14.4528934 C46.3056346,14.6305455 46.0654615,14.7702629 45.7793769,14.8723127 C45.4927615,14.9740953 45.1557231,15.0251202 44.7679962,15.0251202 C44.2658885,15.0251202 43.8383538,14.9759653 43.4861885,14.8787242 C43.1334923,14.7812159 42.8383846,14.6658088 42.6003346,14.5327701 L42.9177346,13.6282137 C43.1202231,13.7433536 43.3845462,13.8499449 43.7107038,13.9477203 C44.0368615,14.0452286 44.3672654,14.0938492 44.7021808,14.0938492 C45.0806192,14.0938492 45.3937731,14.0187811 45.6403154,13.8675765 C45.8871231,13.7169061 46.0105269,13.4462872 46.0105269,13.0559869" id="Fill-7" fill="#373435" sketch:type="MSShapeGroup"></path>
                    <path d="M49.8098792,14.0405535 C50.0564215,14.0405535 50.3074754,14.0071603 50.5630408,13.9409081 C50.8186062,13.8741216 51.0171138,13.7902377 51.1580331,13.6879208 C51.2986869,13.5861382 51.4157215,13.4728683 51.5080754,13.3486454 C51.6006946,13.2244225 51.6691638,13.104741 51.7132177,12.989334 L51.7132177,11.8852195 C51.5898138,11.8761365 51.4637562,11.869725 51.3363715,11.8651835 C51.2087215,11.8609092 51.0829292,11.8585049 50.9595254,11.8585049 C50.5630408,11.8585049 50.16231,11.8742665 49.7570677,11.9049883 C49.35156,11.9362444 49.0630869,12.0671459 48.8913831,12.2976929 C48.7194138,12.5282399 48.6334292,12.7547798 48.6334292,12.9762438 C48.6334292,13.2869346 48.7435638,13.5417919 48.9638331,13.7410829 C49.1843677,13.9409081 49.4662062,14.0405535 49.8098792,14.0405535 L49.8098792,14.0405535 Z M48.1180523,8.70538042 C48.4529677,8.50154801 48.8425523,8.35061051 49.2878677,8.25283507 C49.7326523,8.15559392 50.1976062,8.10643905 50.6821985,8.10643905 C51.1405177,8.10643905 51.5080754,8.16895122 51.7856677,8.29263982 C52.0635254,8.41712987 52.2747715,8.57902035 52.4202023,8.77857843 C52.5656331,8.9781365 52.6624985,9.19746338 52.7110638,9.43709336 C52.7590985,9.67645619 52.7835138,9.91608617 52.7835138,10.155449 C52.7835138,10.6876039 52.77051,11.2069357 52.7442369,11.712376 C52.7176985,12.2175491 52.7041638,12.6968091 52.7041638,13.1493544 C52.7041638,13.4774097 52.7638754,13.7942449 52.8827677,14.1006614 C53.00166,14.4062764 53.1935331,14.6702167 53.4578562,14.892215 L52.5191908,14.892215 C52.24611,14.892215 52.0168177,14.5815242 51.8318446,13.9606769 L51.7660292,13.9606769 C51.6866792,14.0848998 51.5874254,14.2069855 51.4685331,14.3263998 C51.3499062,14.4466155 51.2063331,14.5526725 51.0388754,14.6459064 C50.8714177,14.7391404 50.6469023,14.8168799 50.3650638,14.8788577 C50.08296,14.9405685 49.8011215,14.9718246 49.5190177,14.9718246 C49.2371792,14.9718246 48.9749792,14.9274783 48.7326831,14.8387858 C48.4901215,14.7500934 48.2809985,14.6240004 48.1047831,14.4594385 C47.9283023,14.295678 47.7897715,14.0982571 47.6883946,13.8677101 C47.5872831,13.6371631 47.5365946,13.37536 47.5365946,13.0825679 C47.5365946,12.6922676 47.6862715,12.2888771 47.9858908,11.8718622 C48.28551,11.4551144 48.7085331,11.2133472 49.2546946,11.1468279 C49.8011215,11.0803085 50.3780677,11.0471824 50.9863292,11.0471824 L51.3499062,11.0471824 C51.4685331,11.0471824 51.5898138,11.0559982 51.7132177,11.073897 C51.7394908,10.8075524 51.7524946,10.5679225 51.7524946,10.3550071 C51.7524946,9.8674656 51.6556292,9.52578584 51.4618985,9.3305021 C51.2679023,9.13548551 50.9154715,9.03771007 50.4046062,9.03771007 C50.2546638,9.03771007 50.0938408,9.04919735 49.9224023,9.07110332 C49.7501677,9.09327644 49.5739523,9.12453252 49.3937562,9.16433728 C49.2127638,9.20414204 49.04106,9.25302976 48.8778485,9.3107333 C48.7149023,9.36843684 48.5715946,9.43281903 48.4484562,9.50387987 L48.1180523,8.70538042 Z" id="Fill-9" fill="#373435" sketch:type="MSShapeGroup"></path>
                    <path d="M59.8017162,14.0937957 C60.2510123,14.0937957 60.6076892,13.9765186 60.8720123,13.741163 C61.1363354,13.5063416 61.3170623,13.1494346 61.4139277,12.6701746 L61.4139277,9.37065415 C61.2557585,9.24643125 61.0747662,9.15747163 60.8720123,9.10457671 C60.6695238,9.05114751 60.4009546,9.02443291 60.0660392,9.02443291 C59.4580431,9.02443291 58.9822085,9.2263953 58.6385354,9.63005293 C58.2948623,10.0337106 58.1231585,10.6791353 58.1231585,11.565793 C58.1231585,11.9293787 58.1512892,12.266517 58.2088777,12.5769407 C58.2664662,12.8876315 58.3606777,13.1537089 58.4928392,13.3754401 C58.6250008,13.5971713 58.7993585,13.7724191 59.0153815,13.9006492 C59.2311392,14.0296807 59.4933392,14.0937957 59.8017162,14.0937957 L59.8017162,14.0937957 Z M62.4714854,12.5769407 C62.4714854,13.029486 62.4757315,13.4398223 62.4844892,13.8079495 C62.4935123,14.1758096 62.53332,14.5372581 62.6036469,14.892028 L61.8900277,14.892028 L61.6257046,13.9476669 L61.5728931,13.9476669 C61.3964123,14.2580905 61.1411123,14.515085 60.8059315,14.7189174 C60.4712815,14.9232841 60.0790431,15.0250668 59.6297469,15.0250668 C58.7484046,15.0250668 58.0942315,14.745632 57.6669623,14.1867626 C57.2396931,13.6281602 57.0260585,12.7545928 57.0260585,11.565793 C57.0260585,10.4304224 57.2925046,9.56807506 57.8259277,8.97821665 C58.35882,8.38835824 59.0920777,8.09316189 60.0262315,8.09316189 C60.3521238,8.09316189 60.6098123,8.11106067 60.7995623,8.1465911 C60.9887815,8.18212152 61.1939238,8.23955791 61.4139277,8.31943457 L61.4139277,5.55206897 L62.4714854,5.55206897 L62.4714854,12.5769407 Z" id="Fill-11" fill="#373435" sketch:type="MSShapeGroup"></path>
                    <path d="M64.2194412,11.5392119 C64.2194412,11.8763502 64.2526142,12.2003983 64.318695,12.510822 C64.3847758,12.8212457 64.4882758,13.0915975 64.6289296,13.3221445 C64.7701142,13.5526915 64.9548219,13.7388923 65.1841142,13.8810139 C65.4134065,14.0228685 65.6904681,14.0939293 66.0166258,14.0939293 C67.2153681,14.1027451 67.8143412,13.2510836 67.8143412,11.5392119 C67.8143412,11.1932579 67.7814335,10.8652025 67.7150873,10.5545117 C67.6492719,10.2440881 67.5455065,9.97400343 67.4045873,9.74318927 C67.2636681,9.51264226 67.078695,9.32857865 66.8496681,9.19073131 C66.6203758,9.05341825 66.3430488,8.98449458 66.0166258,8.98449458 C64.8186796,8.97594591 64.2194412,9.82760741 64.2194412,11.5392119 M63.1220758,11.5392119 C63.1220758,10.4129243 63.3712719,9.55030985 63.8691335,8.95110133 C64.3667296,8.35269425 65.0830027,8.05322356 66.0166258,8.05322356 C66.5102412,8.05322356 66.9396335,8.13577168 67.3055988,8.29953219 C67.6710335,8.46355985 67.9733065,8.69864834 68.2108258,9.00479768 C68.4491412,9.31067987 68.6250912,9.67880708 68.7394719,10.1089122 C68.8541181,10.5392844 68.9117065,11.0158729 68.9117065,11.5392119 C68.9117065,12.6657667 68.662245,13.528114 68.1643835,14.1273226 C67.6667873,14.7257296 66.951045,15.0252003 66.0166258,15.0252003 C65.5232758,15.0252003 65.0938835,14.9429194 64.7279181,14.7788917 C64.3624835,14.6151312 64.0607412,14.3800427 63.8229565,14.0738934 C63.5849065,13.767744 63.4084258,13.399884 63.294045,12.9695117 C63.1793988,12.5394066 63.1220758,12.062551 63.1220758,11.5392119" id="Fill-13" fill="#373435" sketch:type="MSShapeGroup"></path>
                    <path d="M41.1589777,16.483497 L39.5465008,18.3858438 L38.7272585,18.3858438 L39.87717,16.483497 L41.1589777,16.483497 Z M37.4849931,22.4966867 C37.4849931,23.9069506 38.2776969,24.9709931 39.4143392,24.9709931 C40.5244431,24.9709931 41.3569546,23.9200407 41.3569546,22.4699721 C41.3569546,21.3792149 40.8153046,20.009023 39.4406123,20.009023 C38.0794546,20.009023 37.4849931,21.285981 37.4849931,22.4966867 L37.4849931,22.4966867 Z M42.5466738,22.4301674 C42.5466738,24.811507 40.8946546,25.8493692 39.3615277,25.8493692 C37.6436931,25.8493692 36.2955392,24.5721441 36.2955392,22.5364915 C36.2955392,20.3947819 37.7095085,19.130914 39.4671508,19.130914 C41.3041431,19.130914 42.5466738,20.4743914 42.5466738,22.4301674 L42.5466738,22.4301674 Z" id="Fill-16" fill="#373435" sketch:type="MSShapeGroup"></path>
                    <path d="M47.7806158,21.8848422 C47.7806158,21.738179 47.7670812,21.5388881 47.7275388,21.3924921 C47.5555696,20.6607791 46.9213004,20.0487476 46.0492465,20.0487476 C44.8462581,20.0487476 44.1329042,21.1130574 44.1329042,22.5233212 C44.1329042,23.8272609 44.7804427,24.9046608 46.0227081,24.9046608 C46.8024081,24.9046608 47.5162927,24.3727731 47.7275388,23.5077543 C47.7670812,23.3480009 47.7806158,23.1885148 47.7806158,23.0020468 L47.7806158,21.8848422 Z M48.9299965,16.2574113 L48.9299965,24.0399091 C48.9299965,24.6118688 48.9568004,25.263705 48.9830735,25.7028931 L47.9520542,25.7028931 L47.8992427,24.5851541 L47.8597004,24.5851541 C47.5162927,25.3037769 46.7495965,25.8492891 45.7055735,25.8492891 C44.1594427,25.8492891 42.9564542,24.5319921 42.9564542,22.5762161 C42.9434504,20.4345065 44.278335,19.1308339 45.8244658,19.1308339 C46.8154119,19.1308339 47.4634812,19.5964694 47.7540773,20.1019097 L47.7806158,20.1019097 L47.7806158,16.2574113 L48.9299965,16.2574113 Z" id="Fill-18" fill="#373435" sketch:type="MSShapeGroup"></path>
                    <path d="M57.1131577,21.805019 C57.1131577,21.6051937 57.0996231,21.4320831 57.0468115,21.2859543 C56.8353,20.5943132 56.2803808,20.0354437 55.4213308,20.0354437 C54.3112269,20.0354437 53.5182577,20.9800721 53.5182577,22.4699454 C53.5182577,23.7338132 54.1660615,24.7847657 55.4080615,24.7847657 C56.13495,24.7847657 56.7824885,24.3327546 57.0202731,23.5876843 C57.0866192,23.3883934 57.1131577,23.1618536 57.1131577,22.9622955 L57.1131577,21.805019 Z M58.2758077,24.7585853 C58.2758077,26.2481915 57.9719423,27.1396578 57.3639462,27.7116174 C56.7299423,28.283577 55.8308192,28.4834023 55.0248462,28.4834023 C54.2584154,28.4834023 53.4129,28.2972015 52.8972577,27.9512474 L53.1878538,27.0464238 C53.6108769,27.3255914 54.2716846,27.5649543 55.0646538,27.5649543 C56.2538423,27.5649543 57.1261615,26.9400997 57.1261615,25.3038304 L57.1261615,24.598832 L57.0996231,24.598832 C56.75595,25.1972391 56.0558654,25.6762319 55.0646538,25.6762319 C53.4787154,25.6762319 52.3420731,24.3191301 52.3420731,22.5364648 C52.3420731,20.3546832 53.7560423,19.1308873 55.2363577,19.1308873 C56.3464615,19.1308873 56.9411885,19.702847 57.2317846,20.2350018 L57.2583231,20.2350018 L57.2978654,19.2639261 L58.3288846,19.2639261 C58.2893423,19.7164714 58.2758077,20.2486263 58.2758077,21.0198768 L58.2758077,24.7585853 Z" id="Fill-20" fill="#373435" sketch:type="MSShapeGroup"></path>
                    <path d="M60.1974577,22.4966333 C60.1974577,23.9068971 60.9904269,24.9712069 62.1270692,24.9712069 C63.2371731,24.9712069 64.0696846,23.9199873 64.0696846,22.4699187 C64.0696846,21.3791615 63.5280346,20.0089696 62.1533423,20.0089696 C60.7921846,20.0089696 60.1974577,21.2859275 60.1974577,22.4966333 M65.2588731,22.4301139 C65.2588731,24.8114535 63.6073846,25.8493158 62.0739923,25.8493158 C60.3561577,25.8493158 59.0082692,24.5723579 59.0082692,22.5364381 C59.0082692,20.3947284 60.4222385,19.1308606 62.1798808,19.1308606 C64.0171385,19.1308606 65.2588731,20.4746051 65.2588731,22.4301139" id="Fill-22" fill="#373435" sketch:type="MSShapeGroup"></path>
                    <mask id="mask-2" sketch:name="Clip 25" fill="white">
                        <use xlink:href="#path-1"></use>
                    </mask>
                    <g id="Clip-25"></g>
                    <path d="M50.0852423,19.2638993 L51.2484231,19.2638993 L51.2484231,25.7026527 L50.0852423,25.7026527 L50.0852423,19.2638993 Z M51.3803192,17.4545194 C51.3803192,17.8536355 51.1027269,18.172875 50.6401615,18.172875 C50.2174038,18.172875 49.9400769,17.8536355 49.9400769,17.4545194 C49.9400769,17.0554032 50.2304077,16.7230736 50.6667,16.7230736 C51.0894577,16.7230736 51.3803192,17.0423131 51.3803192,17.4545194 L51.3803192,17.4545194 Z" id="Fill-24" fill="#373435" sketch:type="MSShapeGroup" mask="url(#mask-2)"></path>
                    <path d="M23.2631377,10.9023893 L23.2631377,5.26667688 L23.2628723,5.26667688 L23.2628723,5.41841582 L10.7863454,5.41841582 L5.28837231,5.41841582 L5.28837231,10.9528799 L5.28837231,19.2531066 L5.28837231,24.7875707 L10.7863454,24.7875707 L23.2628723,24.7875707 L23.2628723,24.9903345 L23.2631377,24.9903345 L23.2631377,19.3548893 L10.6560415,19.3548893 L10.6560415,10.9023893 L23.2631377,10.9023893 Z" id="Fill-26" fill="#FFCE2B" sketch:type="MSShapeGroup" mask="url(#mask-2)"></path>
                    <path d="M10.7862923,24.7874638 L5.28831923,24.7874638 L5.28831923,19.2529998 L5.28831923,10.9530402 L5.28831923,5.41830896 L10.7862923,5.41830896 L23.2628192,5.41830896 L23.2628192,5.26683717 L23.2628192,0.0190207965 L5.28831923,0.0190207965 L0,5.41830896 L0,24.7874638 L5.28831923,30.1875534 L23.2628192,30.1875534 L23.2628192,24.9904948 L23.2628192,24.7874638 L10.7862923,24.7874638 Z" id="Fill-27" fill="#F58635" sketch:type="MSShapeGroup" mask="url(#mask-2)"></path>
                </g>
            </g>
        </g>
    </g>
</svg>