<svg viewBox="0 0 34 37" xmlns="http://www.w3.org/2000/svg"><path d="M27.64 10.736c1.297 2.248 1.99 4.847 1.99 7.562 0 3.834-1.38 7.433-3.887 10.14-2.426 2.625-5.654 4.114-9.09 4.198-.868.022-1.557.798-1.54 1.738.02.925.72 1.666 1.576 1.666h.034c4.25-.1 8.246-1.945 11.246-5.194 3.103-3.35 4.81-7.805 4.81-12.547 0-3.69-1.035-7.21-2.978-10.19l2.15.136c.923.066 1.615-.66 1.666-1.6.05-.94-.613-1.742-1.48-1.8l-5.98-.376-.063-.002a1.485 1.485 0 0 0-.73.182 1.544 1.544 0 0 0-.38.28 1.778 1.778 0 0 0-.495 1.242v6.462c0 .94.705 1.702 1.575 1.702s1.575-.763 1.575-1.702v-1.898zM3.886 29.8C-1.344 22.798-.95 12.545 5.03 6.083 8.136 2.733 12.255.89 16.64.89c.974.034 1.626.748 1.624 1.705-.002.94-.708 1.698-1.575 1.698H16.64c-3.543 0-6.874 1.49-9.382 4.197-4.856 5.25-5.155 13.585-.898 19.214v-2.41c0-.94.706-1.7 1.575-1.7.87 0 1.575.76 1.575 1.7v6.468c0 .465-.178.917-.494 1.236-.293.297-.68.466-1.08.466-.032 0-.062 0-.093-.005l-5.98-.378c-.868-.053-1.53-.86-1.48-1.8.05-.94.745-1.648 1.664-1.6l1.84.118z" fill="#FFF"/></svg>