<svg viewBox="0 0 24 31" xmlns="http://www.w3.org/2000/svg"><g fill="#FFF" fill-rule="evenodd"><path d="M5.203 7.216c-.552 0-1-.484-1-1.08V1.452c0-.597.448-1.08 1-1.08s1 .483 1 1.08v4.682c0 .597-.448 1.08-1 1.08zM18.8 7.216c-.552 0-1-.484-1-1.08V1.452c0-.597.448-1.08 1-1.08s1 .483 1 1.08v4.682c0 .597-.448 1.08-1 1.08zM22.768 11.637H1.232c-.552 0-1-.484-1-1.08 0-.597.448-1.08 1-1.08h21.536c.552 0 1 .483 1 1.08 0 .596-.448 1.08-1 1.08z"/><path d="M12.526 30.362h-8.96c-1.84 0-3.334-1.615-3.334-3.6V6.455c0-1.987 1.494-3.602 3.333-3.602h16.87c1.838 0 3.333 1.615 3.333 3.602V22.74c0 .596-.448 1.08-1 1.08s-1-.484-1-1.08V6.453c0-.796-.598-1.44-1.333-1.44H3.565c-.736 0-1.333.644-1.333 1.44v20.31c0 .793.597 1.437 1.333 1.437h8.96c.553 0 1 .485 1 1.082 0 .596-.447 1.08-1 1.08z"/><path d="M9.654 23.543c-.552 0-1-.484-1-1.08v-5.47l-.378.41a.952.952 0 0 1-1.416 0 1.144 1.144 0 0 1 0-1.528l2.085-2.26a.953.953 0 0 1 1.09-.233c.375.166.618.56.618 1v8.08c0 .598-.447 1.08-1 1.08z"/><path d="M16.272 23.345c.324 0 .567-.06.73-.177.16-.117.242-.316.242-.596 0-.28-.08-.48-.243-.596-.16-.118-.404-.177-.728-.177h-2.66a3 3 0 0 1 .412-.882c.194-.29.47-.614.83-.976l1.12-1.125c.793-.795 1.19-1.667 1.19-2.616 0-.857-.237-1.508-.71-1.95-.472-.444-1.163-.665-2.072-.665-.783 0-1.402.226-1.856.678-.455.452-.682 1.048-.682 1.79 0 .28.06.516.182.71.122.195.335.292.642.292a.84.84 0 0 0 .567-.196c.153-.132.238-.324.256-.577.037-.443.125-.775.264-.997.14-.22.37-.332.696-.332.297 0 .52.11.675.325.153.216.23.515.23.894 0 .38-.08.718-.237 1.017-.158.3-.47.683-.938 1.153l-.635.637c-.35.352-.646.705-.884 1.057a6.19 6.19 0 0 0-.56.997c-.135.31-.23.596-.283.853-.054.258-.08.486-.08.685 0 .515.264.773.796.773h3.74z" stroke="#FFF" stroke-width=".5"/><path d="M12.525 30.365c-.482 0-.902-.377-.985-.9-.088-.557.24-1.095.748-1.23.048-.014 2.37-.67 3.427-2.693.636-1.22.7-2.738.192-4.514-.108-.38-.016-.79.24-1.075a.95.95 0 0 1 .99-.28l5.907 1.83c.43.133.724.555.724 1.04v.404c0 .05-.002.1-.01.15-.772 6.067-10.71 7.215-11.132 7.263-.034.002-.067.005-.1.005zm5.667-8.12c.18 1.625-.068 3.09-.745 4.377-.075.14-.15.276-.232.405 2.026-.78 3.934-1.975 4.452-3.703l-3.475-1.078z"/></g></svg>