<svg viewBox="0 0 38 42" xmlns="http://www.w3.org/2000/svg"><path d="M19 41.812a4.866 4.866 0 0 1-3.195-1.196l-1.47-1.29c-.474-.413-1.078-.597-1.683-.597l-1.9.09c-2.418.14-4.577-1.564-5.182-4.004l-.518-1.933c-.172-.645-.518-1.15-1.036-1.52L2.418 30.26c-2.03-1.382-2.85-4.097-1.986-6.49l.69-1.888a2.83 2.83 0 0 0 0-1.887l-.69-1.887c-.82-2.394 0-5.11 1.986-6.49l1.598-1.105c.518-.368.864-.875 1.036-1.52l.518-1.978c.605-2.44 2.764-4.143 5.182-4.005l1.9.092c.605.046 1.21-.184 1.684-.598l1.47-1.29a4.866 4.866 0 0 1 6.39 0l1.468 1.29c.475.414 1.08.598 1.684.598l1.9-.092c2.202-.138 4.188 1.243 4.966 3.452.172.507.086 1.105-.26 1.473l-11.227 12.29c-.388.414-.907.736-1.425.828a2.33 2.33 0 0 1-1.986-.736l-3.93-4.28a.773.773 0 0 0-1.122 0l-1.037 1.058a.903.903 0 0 0 0 1.197l6.823 7.41c.518.553 1.382.553 1.857 0L33.034 11.25c.432-.46 1.123-.553 1.64-.185l.82.6c2.03 1.38 2.85 4.095 1.988 6.49l-.69 1.886a2.83 2.83 0 0 0 0 1.888l.69 1.887c.863 2.394.043 5.11-1.987 6.49l-1.51 1.06c-.52.367-.865.92-1.037 1.518l-.518 1.933c-.605 2.348-2.635 4.005-4.923 4.005h-.26l-1.9-.09c-.604-.047-1.208.183-1.683.597l-1.47 1.29c-.905.735-2.028 1.195-3.194 1.195zm-5.614-5.845c.994.138 1.944.598 2.72 1.29l1.383 1.15c.862.736 2.244.736 3.108 0l1.468-1.29a5.06 5.06 0 0 1 3.454-1.196l1.9.093c1.166.046 2.203-.737 2.505-1.933l.518-1.98c.346-1.288 1.08-2.393 2.116-3.13l1.597-1.104c.993-.69 1.382-1.98.95-3.176l-.69-1.887a5.932 5.932 0 0 1 0-3.867l.69-1.887c.345-.968.13-2.026-.518-2.717-.174-.23-.52-.23-.735 0L20.77 28.786c-.388.415-.906.737-1.468.83-.777.09-1.468-.185-1.986-.738l-8.68-9.39c-.906-1.012-.906-2.623.044-3.59l2.418-2.53a2.62 2.62 0 0 1 1.425-.784 2.33 2.33 0 0 1 1.986.737l3.54 3.82c.518.553 1.34.553 1.857 0l8.895-9.71c.346-.415.303-1.06-.172-1.336-.39-.184-.778-.322-1.253-.276l-1.9.092c-1.252.046-2.504-.368-3.454-1.197l-1.468-1.29c-.864-.735-2.246-.735-3.11 0l-1.468 1.29c-.95.83-2.202 1.243-3.454 1.197l-1.9-.092c-1.166-.046-2.203.736-2.505 1.933l-.475 1.934c-.345 1.29-1.08 2.394-2.116 3.13l-1.64 1.105c-.994.69-1.382 1.978-.95 3.175l.69 1.887a5.932 5.932 0 0 1 0 3.867l-.69 1.886c-.432 1.15 0 2.485.95 3.176l1.597 1.104a5.357 5.357 0 0 1 2.116 3.13l.518 1.934c.302 1.196 1.34 2.025 2.505 1.933l1.9-.046c.26-.046.56 0 .863 0z" fill="#FFF"/></svg>