<svg width="25" height="25" viewBox="0 0 25 25" xmlns="http://www.w3.org/2000/svg"><path d="M21.378.56l-8.47 1.583h-.357L4.083.56C2.142.205.46 1.736.46 3.623v16.582c0 1.48 1.07 2.806 2.5 3.06l9.183 1.685c.255.05.408.05.612.05.204 0 .357 0 .56-.05l9.185-1.685c1.43-.255 2.5-1.53 2.5-3.06V3.62c0-1.887-1.684-3.418-3.622-3.06zM2.55 20.205V3.622c0-.56.46-1.07 1.02-1.07h.206l7.96 1.48v18.723l-8.318-1.53c-.51-.052-.867-.51-.867-1.02zm20.41 0c0 .51-.358.97-.868 1.02l-8.316 1.53V4.032l8.01-1.48c.663-.1 1.173.41 1.173 1.02v16.634zM20.713 6.378l-5.102 1.02c-.56.102-.918.663-.816 1.224.102.46.51.817 1.02.817h.204l5.102-1.022c.562-.102.92-.663.817-1.224-.154-.612-.664-.918-1.226-.816zm0 5.204l-5.102 1.02c-.56.102-.918.663-.816 1.225.102.46.51.816 1.02.816h.204l5.102-1.02c.562-.103.92-.664.817-1.225-.154-.612-.664-.918-1.226-.816zm0 5.204l-5.102 1.02c-.56.102-.918.663-.816 1.225.102.46.51.817 1.02.817h.204l5.102-1.02c.562-.103.92-.664.817-1.225-.154-.612-.664-.97-1.226-.816zm-10.816 1.02l-5.102-1.02c-.56-.102-1.072.255-1.225.816-.152.56.257 1.07.818 1.225l5.102 1.02h.204c.46 0 .918-.357 1.02-.816.102-.56-.255-1.122-.816-1.224zm0-5.204l-5.102-1.02c-.56-.102-1.072.255-1.225.816-.152.56.257 1.07.818 1.224l5.102 1.02h.204c.46 0 .918-.356 1.02-.815.102-.562-.255-1.123-.816-1.225zm-5.51-4.235l5.102 1.02h.204c.46 0 .918-.356 1.02-.816.102-.56-.255-1.07-.816-1.223l-5.102-1.02c-.56-.103-1.072.255-1.225.816-.152.56.257 1.122.818 1.224z" fill="#4BB97A"/></svg>