<svg viewBox="0 0 47 34" xmlns="http://www.w3.org/2000/svg"><path d="M29 27.61h10.683c.427 0 .908-.057 1.39-.057 1.013-.058 2.616-.116 2.99.288a.46.46 0 0 1 .106.29c-.535.693-2.778 2.482-4.487 2.482H6.997c-2.083 0-4.06-1.616-4.166-2.193v-.117c0-.115 0-.404.107-.52.214-.23.802-.288 1.443-.288.373 0 .8.058 1.175.058.48.058.908.058 1.388.058H18c0 .693.533 1.27 1.174 1.27h8.652c.694 0 1.175-.577 1.175-1.27zM5.61 25.01c-1.64-.113-3.323-.158-4.38.927-.587.577-.854 1.385-.854 2.366v.116c0 2.48 3.685 4.79 6.57 4.79h32.74c2.51 0 6.248-2.483 6.782-4.33.053-.173.053-.288.053-.46v-.117c0-.923-.268-1.73-.855-2.308-.975-1.004-2.515-1.048-4.06-1.004V4.237c0-2.943-1.228-4.213-4.005-4.213H9.667c-2.083 0-4.06.52-4.06 4.098v20.89zm2.35.06h31.19V4.237c0-1.443-.053-1.616-1.6-1.616H9.613c-1.656 0-1.656.173-1.656 1.5v20.95zm17.41-2.654c-1.44 0-2.936-.404-4.218-1.327l-1.602-1.04c-.428-.29-.64-.866-.534-1.443.106-.577.587-.923 1.12-.98 2.832-.174 4.86-1.328 6.036-3.464 1.23-2.193 1.282-4.675.16-7.387-.213-.52-.106-1.155.32-1.5.375-.405.963-.405 1.443-.116l1.602 1.04c1.816 1.21 3.098 3.173 3.632 5.424.48 2.25.16 4.617-1.014 6.58-1.55 2.712-4.22 4.212-6.944 4.212zm4.862-5.483c.8-1.385 1.068-3.058.694-4.617a5.844 5.844 0 0 0-1.442-2.828c.213 2.193-.214 4.27-1.282 6.118-1.068 1.79-2.617 3.174-4.54 3.925 2.404.866 5.18-.173 6.57-2.597zm-7.424-9.696c-.32 0-.64-.115-.855-.404a1.416 1.416 0 0 1-.373-.923c0-.346.107-.693.374-.923.428-.462 1.23-.462 1.71 0 .214.23.374.577.374.923 0 .346-.107.693-.374.923-.267.23-.587.404-.854.404z" fill="#FFF" fill-rule="evenodd"/></svg>