<svg width="30" height="25" viewBox="0 0 30 25" xmlns="http://www.w3.org/2000/svg"><path d="M26.25 11.25l-6.25 4v-1.5A3.76 3.76 0 0 0 16.25 10H3.75A3.76 3.76 0 0 0 0 13.75v7.5A3.76 3.76 0 0 0 3.75 25h12.5A3.76 3.76 0 0 0 20 21.25v-1.438l6.313 4c.375.188.812.313 1.187.313 1.375 0 2.5-1.125 2.5-2.5v-8.25c0-1.813-1.875-3.188-3.75-2.125zm-8.75 10c0 .688-.563 1.25-1.25 1.25H3.75c-.688 0-1.25-.563-1.25-1.25v-7.5c0-.688.563-1.25 1.25-1.25h12.5c.688 0 1.25.563 1.25 1.25v7.5zm10 .375L21.062 17.5l6.438-4.125v8.25zM10 5c0-2.75-2.25-5-5-5S0 2.25 0 5s2.25 5 5 5 5-2.25 5-5zM5 7.5A2.507 2.507 0 0 1 2.5 5c0-1.375 1.125-2.5 2.5-2.5S7.5 3.625 7.5 5 6.375 7.5 5 7.5zM15 10c2.75 0 5-2.25 5-5s-2.25-5-5-5-5 2.25-5 5 2.25 5 5 5zm0-7.5c1.375 0 2.5 1.125 2.5 2.5S16.375 7.5 15 7.5A2.507 2.507 0 0 1 12.5 5c0-1.375 1.125-2.5 2.5-2.5z" fill="#FBCF36"/></svg>