<svg width="24" height="25" viewBox="0 0 24 25" xmlns="http://www.w3.org/2000/svg"><path d="M21 0H3C1.35 0 0 1.39 0 3.09v18.546c0 1.7 1.35 3.09 3 3.09h18c1.65 0 3-1.39 3-3.09V3.09C24 1.39 22.65 0 21 0zM10 9.273h4c1.65 0 3-1.39 3-3.09 0-.568-.45-1.03-1-1.03s-1 .462-1 1.03c0 .565-.45 1.03-1 1.03h-4c-.55 0-1-.465-1-1.03 0-.568-.45-1.03-1-1.03s-1 .462-1 1.03c0 1.7 1.35 3.09 3 3.09zm6 7.212c-.55 0-1 .463-1 1.03s-.45 1.03-1 1.03h-4c-.55 0-1-.463-1-1.03s-.45-1.03-1-1.03-1 .463-1 1.03c0 1.7 1.35 3.09 3 3.09h4c1.65 0 3-1.39 3-3.09 0-.567-.45-1.03-1-1.03zM3 2.06h18c.55 0 1 .464 1 1.03v8.243H2V3.09c0-.566.45-1.03 1-1.03zm18 20.607H3c-.55 0-1-.464-1-1.03v-8.243h20v8.242c0 .567-.45 1.03-1 1.03z" fill="#5E9EDC"/></svg>